<?xml version="1.0" encoding="UTF-8" standalone="no"?>
<!-- Created with Inkscape (http://www.inkscape.org/) -->

<svg
   width="351.89581mm"
   height="264.58334mm"
   viewBox="0 0 351.89581 264.58335"
   version="1.1"
   id="svg34944"
   xmlns="http://www.w3.org/2000/svg"
   xmlns:svg="http://www.w3.org/2000/svg">
  <defs
     id="defs34941">
    <marker
       style="overflow:visible"
       id="Arrow1Mend"
       refX="0"
       refY="0"
       orient="auto">
      <path
         transform="matrix(-0.4,0,0,-0.4,-4,0)"
         style="fill:context-stroke;fill-rule:evenodd;stroke:context-stroke;stroke-width:1pt"
         d="M 0,0 5,-5 -12.5,0 5,5 Z"
         id="path192801" />
    </marker>
    <marker
       style="overflow:visible"
       id="Arrow2Lend"
       refX="0"
       refY="0"
       orient="auto">
      <path
         transform="matrix(-1.1,0,0,-1.1,-1.1,0)"
         d="M 8.7185878,4.0337352 -2.2072895,0.01601326 8.7185884,-4.0017078 c -1.7454984,2.3720609 -1.7354408,5.6174519 -6e-7,8.035443 z"
         style="fill:context-stroke;fill-rule:evenodd;stroke:context-stroke;stroke-width:0.625;stroke-linejoin:round"
         id="path192813" />
    </marker>
  </defs>
  <g
     id="layer1"
     transform="translate(55.562496,-10.583333)">
    <path
       id="rect21815"
       style="fill:#abd9e9;stroke:#000000;stroke-width:0.529167"
       d="M 20.407511,20.312368 H 195.29702 V 118.93258 H 20.407511 Z" />
    <g
       id="g95565">
      <g
         id="g6785">
        <path
           id="rect95425"
           style="opacity:1;fill:#abd9e9;stroke-width:0.529167"
           d="M -24.29896,58.208332 H 31.750002 V 74.083328 H -24.29896 Z" />
        <path
           id="rect89427"
           style="opacity:1;fill:#abd9e9;stroke:#000000;stroke-width:0.529167"
           d="m -24.302296,58.208332 h 56.052298 m 0,15.874995 h -56.052298" />
      </g>
    </g>
    <text
       xml:space="preserve"
       style="font-size:10.5833px;line-height:1.25;font-family:'JetBrains Mono';-inkscape-font-specification:'JetBrains Mono';text-align:center;text-anchor:middle;stroke-width:0.264583"
       x="31.75"
       y="26.458332"
       id="text36489"><tspan
         id="tspan36487"
         style="stroke-width:0.264583"
         x="31.75"
         y="26.458332" /></text>
    <g
       aria-label="Quantity&lt;Meters, T&gt;

T value_ = 1.75;"
       id="text44149"
       style="font-size:10.5833px;line-height:1.25;font-family:'JetBrains Mono';-inkscape-font-specification:'JetBrains Mono';stroke-width:0.264583">
      <path
         d="m 50.599234,44.238326 -1.09008,-1.799161 q -0.03175,0 -0.0635,0 -0.740831,0 -1.291162,-0.285749 -0.550332,-0.285749 -0.857248,-0.804331 -0.306915,-0.518581 -0.306915,-1.217079 V 36.80885 q 0,-0.698498 0.296332,-1.21708 0.306916,-0.518581 0.857247,-0.804331 0.560915,-0.285749 1.301746,-0.285749 0.740831,0 1.291163,0.285749 0.550331,0.28575 0.857247,0.804331 0.306916,0.518582 0.306916,1.21708 v 3.323156 q 0,0.698498 -0.306916,1.227662 -0.296332,0.518582 -0.846664,0.793748 l 1.280579,2.08491 z m -1.15358,-2.963324 q 0.550332,0 0.836081,-0.296332 0.296332,-0.306916 0.296332,-0.846664 V 36.80885 q 0,-0.539749 -0.306916,-0.846664 -0.296332,-0.306916 -0.825497,-0.306916 -0.529165,0 -0.836081,0.306916 -0.296332,0.306915 -0.296332,0.846664 v 3.323156 q 0,0.539748 0.285749,0.846664 0.296333,0.296332 0.846664,0.296332 z"
         style="font-weight:bold"
         id="path4120" />
      <path
         d="m 55.795618,42.439165 q -1.111247,0 -1.746245,-0.613831 -0.634998,-0.624415 -0.634998,-1.693328 v -3.619489 h 1.322913 v 3.608905 q 0,0.550332 0.275166,0.857248 0.275165,0.306915 0.783164,0.306915 0.497415,0 0.772581,-0.306915 0.285749,-0.306916 0.285749,-0.857248 v -3.608905 h 1.322912 v 3.619489 q 0,1.068913 -0.645581,1.693328 -0.645581,0.613831 -1.735661,0.613831 z"
         style="font-weight:bold"
         id="path4122" />
      <path
         d="m 61.5,42.439165 q -0.888997,0 -1.407579,-0.497415 -0.507998,-0.507998 -0.507998,-1.322912 0,-0.846664 0.582081,-1.34408 0.582082,-0.507998 1.598079,-0.507998 h 1.418162 v -0.412749 q 0,-0.878413 -1.02658,-0.878413 -0.465665,0 -0.740831,0.179916 -0.275166,0.179916 -0.306916,0.507998 h -1.269996 q 0.04233,-0.783164 0.656165,-1.269996 0.624414,-0.486832 1.672161,-0.486832 1.111246,0 1.725078,0.518582 0.613831,0.518582 0.613831,1.460495 v 3.947571 h -1.291162 v -1.09008 q -0.07408,0.560915 -0.529165,0.878414 -0.455082,0.317499 -1.18533,0.317499 z m 0.423332,-1.079497 q 0.582082,0 0.920747,-0.285749 0.338666,-0.285749 0.338666,-0.761997 v -0.687915 h -1.354663 q -0.433915,0 -0.687914,0.243416 -0.253999,0.243416 -0.253999,0.624415 0,0.391582 0.264582,0.634998 0.275166,0.232832 0.772581,0.232832 z"
         style="font-weight:bold"
         id="path4124" />
      <path
         d="m 66.135469,42.333332 v -5.820815 h 1.291162 v 1.09008 q 0.105833,-0.550331 0.518582,-0.86783 0.412749,-0.328083 1.047747,-0.328083 0.857247,0 1.365245,0.571498 0.518582,0.571499 0.518582,1.534579 v 3.820571 H 69.553875 V 38.67151 q 0,-0.539748 -0.28575,-0.825497 -0.275165,-0.296332 -0.751414,-0.296332 -0.497415,0 -0.783164,0.296332 -0.275166,0.296332 -0.275166,0.846664 v 3.640655 z"
         style="font-weight:bold"
         id="path4126" />
      <path
         d="m 75.42759,42.333332 q -0.814914,0 -1.301746,-0.465665 -0.476248,-0.476249 -0.476248,-1.280579 V 37.70843 h -1.608662 v -1.195913 h 1.608662 v -1.640411 h 1.333496 v 1.640411 h 2.317742 v 1.195913 h -2.317742 v 2.846908 q 0,0.253999 0.137583,0.423332 0.148166,0.158749 0.402165,0.158749 h 1.725078 v 1.195913 z"
         style="font-weight:bold"
         id="path4128" />
      <path
         d="m 78.824814,42.333332 v -1.195913 h 1.98966 V 37.70843 H 79.03648 v -1.195913 h 3.100907 v 4.624902 h 1.788577 v 1.195913 z m 2.561158,-6.794478 q -0.402165,0 -0.634998,-0.201083 -0.232832,-0.211666 -0.232832,-0.560915 0,-0.349249 0.232832,-0.550331 0.232833,-0.211666 0.634998,-0.211666 0.402166,0 0.634998,0.211666 0.232833,0.201082 0.232833,0.550331 0,0.349249 -0.232833,0.560915 -0.232832,0.201083 -0.634998,0.201083 z"
         style="font-weight:bold"
         id="path4130" />
      <path
         d="m 88.127517,42.333332 q -0.814914,0 -1.301746,-0.465665 -0.476249,-0.476249 -0.476249,-1.280579 V 37.70843 h -1.608661 v -1.195913 h 1.608661 v -1.640411 h 1.333496 v 1.640411 h 2.317743 v 1.195913 h -2.317743 v 2.846908 q 0,0.253999 0.137583,0.423332 0.148166,0.158749 0.402165,0.158749 h 1.725078 v 1.195913 z"
         style="font-weight:bold"
         id="path4132" />
      <path
         d="m 92.466654,44.238326 0.825497,-2.222493 -2.190743,-5.503316 h 1.396996 l 1.121829,2.973907 q 0.09525,0.264583 0.1905,0.582082 0.09525,0.306916 0.137583,0.571498 0.03175,-0.264582 0.116416,-0.571498 0.09525,-0.317499 0.190499,-0.582082 l 1.037164,-2.973907 h 1.396995 l -2.836324,7.725809 z"
         style="font-weight:bold"
         id="path4134" />
      <path
         d="m 102.61602,41.740667 -4.741316,-2.233076 v -1.322912 l 4.741316,-2.233077 v 1.21708 l -3.069154,1.418162 q -0.211666,0.09525 -0.423332,0.169333 -0.201083,0.0635 -0.317499,0.08467 0.116416,0.02117 0.328082,0.08467 0.211666,0.0635 0.412749,0.158749 l 3.069154,1.418162 z"
         style="font-weight:bold"
         id="path4136" />
      <path
         d="m 103.99184,42.333332 v -7.725809 h 1.72507 l 0.86783,3.323156 0.87842,-3.323156 h 1.73566 v 7.725809 h -1.23825 v -3.249073 q 0,-0.666748 0.0318,-1.375829 0.0423,-0.719664 0.0952,-1.386412 0.0529,-0.677331 0.11642,-1.227663 l -1.09008,3.884071 h -1.09008 l -1.04775,-3.788821 q 0.0953,0.730247 0.16934,1.746244 0.0847,1.005414 0.0847,2.14841 v 3.249073 z"
         style="fill:#392eff"
         id="path4138" />
      <path
         d="m 112.95588,42.439165 q -0.74084,0 -1.29117,-0.285749 -0.55033,-0.285749 -0.85724,-0.804331 -0.29634,-0.529165 -0.29634,-1.238246 V 38.73501 q 0,-0.709081 0.29634,-1.227663 0.30691,-0.529165 0.85724,-0.814914 0.55033,-0.285749 1.29117,-0.285749 0.73024,0 1.26999,0.285749 0.55033,0.285749 0.84666,0.804331 0.30692,0.507999 0.30692,1.195913 v 1.05833 h -3.59832 v 0.402165 q 0,0.592665 0.30691,0.899581 0.30692,0.296332 0.86784,0.296332 0.41274,0 0.69849,-0.137583 0.29634,-0.148166 0.34925,-0.423332 h 1.31233 q -0.13758,0.751415 -0.78316,1.206496 -0.64558,0.444499 -1.57691,0.444499 z m -1.17475,-3.746488 v 0.201083 l 2.32832,-0.01058 v -0.201082 q 0,-0.603248 -0.29633,-0.931331 -0.29633,-0.328082 -0.85724,-0.328082 -0.58209,0 -0.87842,0.338666 -0.29633,0.328082 -0.29633,0.93133 z"
         style="fill:#392eff"
         id="path4140" />
      <path
         d="m 119.87734,42.333332 q -0.81492,0 -1.30175,-0.465665 -0.47625,-0.476249 -0.47625,-1.280579 V 37.70843 h -1.60866 v -1.195913 h 1.60866 v -1.640411 h 1.3335 v 1.640411 h 2.31774 v 1.195913 h -2.31774 v 2.846908 q 0,0.253999 0.13758,0.423332 0.14817,0.158749 0.40217,0.158749 h 1.72507 v 1.195913 z"
         style="fill:#392eff"
         id="path4142" />
      <path
         d="m 125.6558,42.439165 q -0.74083,0 -1.29116,-0.285749 -0.55033,-0.285749 -0.85725,-0.804331 -0.29633,-0.529165 -0.29633,-1.238246 V 38.73501 q 0,-0.709081 0.29633,-1.227663 0.30692,-0.529165 0.85725,-0.814914 0.55033,-0.285749 1.29116,-0.285749 0.73025,0 1.27,0.285749 0.55033,0.285749 0.84666,0.804331 0.30692,0.507999 0.30692,1.195913 v 1.05833 h -3.59833 v 0.402165 q 0,0.592665 0.30692,0.899581 0.30691,0.296332 0.86783,0.296332 0.41275,0 0.6985,-0.137583 0.29633,-0.148166 0.34925,-0.423332 h 1.31233 q -0.13759,0.751415 -0.78317,1.206496 -0.64558,0.444499 -1.57691,0.444499 z m -1.17475,-3.746488 v 0.201083 l 2.32833,-0.01058 v -0.201082 q 0,-0.603248 -0.29633,-0.931331 -0.29634,-0.328082 -0.85725,-0.328082 -0.58208,0 -0.87841,0.338666 -0.29634,0.328082 -0.29634,0.93133 z"
         style="fill:#392eff"
         id="path4144" />
      <path
         d="m 129.84677,42.333332 v -5.820815 h 1.29117 v 1.132413 q 0.10583,-0.571498 0.51858,-0.89958 0.42333,-0.338666 1.09008,-0.338666 0.889,0 1.38641,0.571498 0.49742,0.571499 0.49742,1.598079 v 0.550331 h -1.32292 V 38.63976 q 0,-0.529164 -0.27516,-0.80433 -0.27517,-0.285749 -0.78317,-0.285749 -0.52916,0 -0.80433,0.317499 -0.27516,0.317499 -0.27516,0.89958 v 3.566572 z"
         style="fill:#392eff"
         id="path4146" />
      <path
         d="m 138.10173,42.428582 q -1.03716,0 -1.64041,-0.465665 -0.60325,-0.476249 -0.60325,-1.28058 h 1.30174 q 0,0.338666 0.24342,0.518582 0.254,0.179916 0.6985,0.179916 h 0.46566 q 0.47625,0 0.73025,-0.179916 0.26458,-0.179916 0.26458,-0.518582 0,-0.317499 -0.17991,-0.465665 -0.17992,-0.158749 -0.55033,-0.211666 l -1.44992,-0.190499 q -0.69849,-0.09525 -1.07949,-0.539749 -0.37042,-0.444498 -0.37042,-1.153579 0,-0.825498 0.55033,-1.259413 0.55034,-0.444498 1.5875,-0.444498 h 0.48683 q 0.97366,0 1.56633,0.444498 0.59266,0.444499 0.61383,1.18533 h -1.31233 q -0.0106,-0.275166 -0.24341,-0.433916 -0.23284,-0.169332 -0.62442,-0.169332 h -0.48683 q -0.42333,0 -0.64558,0.179916 -0.22225,0.169333 -0.22225,0.465665 0,0.264582 0.15875,0.391582 0.16933,0.127 0.48683,0.158749 l 1.36525,0.1905 q 0.80433,0.09525 1.20649,0.571498 0.41275,0.465665 0.41275,1.259413 0,0.846664 -0.58208,1.312329 -0.5715,0.455082 -1.68275,0.455082 z"
         style="fill:#392eff"
         id="path4148" />
      <path
         d="m 143.53095,44.02666 0.56091,-3.23849 h 1.51342 l -0.80433,3.23849 z"
         style="font-weight:bold"
         id="path4150" />
      <path
         d="m 156.72829,42.333332 v -6.529896 h -2.02142 v -1.195913 h 5.37632 v 1.195913 h -2.02141 v 6.529896 z"
         style="font-weight:bold"
         id="path4152" />
      <path
         d="m 161.37434,41.740667 v -1.217079 l 3.06916,-1.418162 q 0.21166,-0.09525 0.41275,-0.15875 0.21166,-0.0635 0.32808,-0.09525 -0.11642,-0.02117 -0.32808,-0.08467 -0.21167,-0.0635 -0.41275,-0.148166 l -3.06916,-1.428746 v -1.238246 l 4.74132,2.233077 v 1.322912 z"
         style="font-weight:bold"
         id="path4154" />
      <path
         d="m 48.969406,68.791581 v -6.857978 h -2.11666 v -0.867831 h 5.185817 v 0.867831 h -2.11666 v 6.857978 z"
         id="path4156" />
      <path
         d="M 61.521167,68.791581 59.54209,62.970766 h 1.02658 l 1.269996,3.915821 q 0.116416,0.349249 0.201082,0.677331 0.08467,0.317499 0.127,0.497415 0.05292,-0.179916 0.127,-0.497415 0.07408,-0.328082 0.179916,-0.677331 l 1.269996,-3.915821 h 1.005413 l -1.979077,5.820815 z"
         id="path4158" />
      <path
         d="m 67.987546,68.897414 q -0.89958,0 -1.428745,-0.497415 -0.529165,-0.507998 -0.529165,-1.322912 0,-0.539749 0.243416,-0.941914 0.243416,-0.402165 0.677331,-0.624415 0.433915,-0.232832 0.99483,-0.232832 h 1.799161 v -0.455082 q 0,-1.132413 -1.238246,-1.132413 -0.550332,0 -0.888997,0.201082 -0.338666,0.201083 -0.359832,0.560915 h -0.952497 q 0.05292,-0.687914 0.634998,-1.132413 0.592664,-0.455082 1.566328,-0.455082 1.05833,0 1.619245,0.507999 0.571498,0.507998 0.571498,1.418162 v 4.000487 h -0.941914 v -1.05833 h -0.02117 q -0.08467,0.539748 -0.539749,0.857247 -0.455081,0.306916 -1.206496,0.306916 z m 0.232833,-0.804331 q 0.698498,0 1.111246,-0.338665 0.412749,-0.338666 0.412749,-0.920747 v -0.814914 h -1.693328 q -0.465665,0 -0.761998,0.285749 -0.285749,0.275166 -0.285749,0.740831 0,0.486831 0.317499,0.772581 0.328083,0.275165 0.899581,0.275165 z"
         id="path4160" />
      <path
         d="m 75.692173,68.791581 q -0.772581,0 -1.238246,-0.444498 -0.455082,-0.455082 -0.455082,-1.195913 v -5.217567 h -2.010827 v -0.867831 h 2.963324 v 6.085398 q 0,0.359832 0.201082,0.571498 0.201083,0.201083 0.539749,0.201083 h 1.799161 v 0.86783 z"
         id="path4162" />
      <path
         d="m 81.18489,68.897414 q -1.005414,0 -1.608662,-0.592665 -0.603248,-0.603248 -0.603248,-1.629828 v -3.704155 h 0.952497 v 3.704155 q 0,0.634998 0.338666,1.015997 0.338665,0.370415 0.920747,0.370415 0.592664,0 0.93133,-0.370415 0.349249,-0.380999 0.349249,-1.015997 v -3.704155 h 0.952497 v 3.704155 q 0,1.02658 -0.613832,1.629828 -0.613831,0.592665 -1.619244,0.592665 z"
         id="path4164" />
      <path
         d="m 87.545435,68.897414 q -1.02658,0 -1.661578,-0.613831 -0.624415,-0.624415 -0.624415,-1.714495 v -1.375829 q 0,-1.09008 0.624415,-1.703911 0.634998,-0.624415 1.661578,-0.624415 0.687915,0 1.195913,0.275166 0.518582,0.275166 0.804331,0.772581 0.285749,0.497415 0.285749,1.174746 v 1.037164 h -3.640655 v 0.550331 q 0,0.645582 0.370415,1.02658 0.370416,0.370416 0.984247,0.370416 0.529165,0 0.867831,-0.201083 0.349249,-0.211666 0.423332,-0.560915 h 0.952497 q -0.09525,0.730248 -0.709081,1.164163 -0.613832,0.423332 -1.534579,0.423332 z m -1.354662,-3.513655 h 2.709324 v -0.296333 q 0,-0.687914 -0.359832,-1.05833 -0.349249,-0.380998 -0.99483,-0.380998 -0.645581,0 -1.005413,0.380998 -0.349249,0.370416 -0.349249,1.05833 z"
         id="path4166" />
      <path
         d="m 91.355407,69.849911 v -0.793747 h 5.079984 v 0.793747 z"
         id="path4168" />
      <path
         d="m 104.31992,64.452428 v -0.846664 h 4.55082 v 0.846664 z m 0,2.539992 v -0.846664 h 4.55082 v 0.846664 z"
         id="path4170" />
      <path
         d="m 117.07276,68.791581 v -0.86783 h 2.0955 V 61.89127 l -2.0955,1.566328 v -1.09008 l 1.74625,-1.301746 h 1.30174 v 6.857979 h 1.7145 v 0.86783 z"
         style="fill:#c50087"
         id="path4172" />
      <path
         d="m 125.64522,68.897414 q -0.39159,0 -0.635,-0.232832 -0.23283,-0.232833 -0.23283,-0.603249 0,-0.391582 0.23283,-0.634997 0.24341,-0.243416 0.635,-0.243416 0.39158,0 0.62441,0.243416 0.24342,0.243415 0.24342,0.634997 0,0.370416 -0.24342,0.603249 -0.23283,0.232832 -0.62441,0.232832 z"
         style="fill:#c50087"
         id="path4174" />
      <path
         d="m 130.83102,68.791581 2.75166,-6.857978 h -2.94216 v 1.248829 h -0.9525 v -2.11666 h 4.91066 v 0.888998 l -2.7305,6.836811 z"
         style="fill:#c50087"
         id="path4176" />
      <path
         d="m 138.28164,68.897414 q -1.06891,0 -1.69332,-0.592665 -0.62442,-0.603248 -0.62442,-1.629828 h 0.9525 q 0,0.634998 0.37041,1.005414 0.37042,0.370415 1.00542,0.370415 0.635,0 1.00541,-0.370415 0.37042,-0.370416 0.37042,-1.005414 v -0.476248 q 0,-0.634998 -0.35984,-1.005414 -0.35983,-0.370415 -0.97366,-0.370415 h -2.10608 v -3.757072 h 4.11691 v 0.867831 h -3.22791 l 0.0212,2.02141 h 1.24883 q 1.06891,0 1.65099,0.592665 0.58208,0.582081 0.58208,1.650995 v 0.476248 q 0,1.02658 -0.63499,1.629828 -0.62442,0.592665 -1.70392,0.592665 z"
         style="fill:#c50087"
         id="path4178" />
      <path
         d="m 144.58928,64.452428 q -0.34925,0 -0.5715,-0.222249 -0.22225,-0.222249 -0.22225,-0.571498 0,-0.338666 0.22225,-0.560915 0.23283,-0.232833 0.5715,-0.232833 h 0.21167 q 0.33866,0 0.56091,0.232833 0.23283,0.222249 0.23283,0.560915 0,0.349249 -0.22225,0.571498 -0.22225,0.222249 -0.57149,0.222249 z m -0.89958,6.032481 0.58208,-3.23849 h 1.143 l -0.74083,3.23849 z"
         id="path4180" />
    </g>
    <g
       aria-label="T x = 1.75;

    meters(x)"
       id="text49219"
       style="font-size:10.5833px;line-height:1.25;font-family:'JetBrains Mono';-inkscape-font-specification:'JetBrains Mono';stroke-width:0.264583">
      <path
         d="m -46.812371,42.333332 v -6.857978 h -2.11666 v -0.867831 h 5.185817 v 0.867831 h -2.11666 v 6.857978 z"
         id="path4183" />
      <path
         d="m -36.28202,42.333332 2.063744,-2.995074 -1.936744,-2.825741 h 1.121829 l 1.15358,1.799161 q 0.07408,0.116416 0.137583,0.253999 0.07408,0.137583 0.116416,0.22225 0.03175,-0.08467 0.09525,-0.22225 0.07408,-0.137583 0.148166,-0.253999 l 1.15358,-1.799161 h 1.12183 l -1.936744,2.836325 2.05316,2.98449 h -1.12183 l -1.248829,-1.904994 q -0.07408,-0.116416 -0.148166,-0.264582 -0.0635,-0.15875 -0.116417,-0.254 -0.04233,0.09525 -0.126999,0.254 -0.07408,0.148166 -0.15875,0.264582 l -1.248829,1.904994 z"
         id="path4185" />
      <path
         d="m -23.211677,37.994179 v -0.846664 h 4.550819 v 0.846664 z m 0,2.539992 v -0.846664 h 4.550819 v 0.846664 z"
         id="path4187" />
      <path
         d="m -10.458834,42.333332 v -0.867831 h 2.0954931 v -6.03248 l -2.0954931,1.566328 v -1.09008 l 1.7462442,-1.301746 h 1.3017459 v 6.857978 h 1.7144945 v 0.867831 z"
         style="fill:#c50087"
         id="path4189" />
      <path
         d="m -1.8863771,42.439165 q -0.3915821,0 -0.634998,-0.232833 -0.2328326,-0.232832 -0.2328326,-0.603248 0,-0.391582 0.2328326,-0.634998 0.2434159,-0.243415 0.634998,-0.243415 0.391582,0 0.6244146,0.243415 0.2434159,0.243416 0.2434159,0.634998 0,0.370416 -0.2434159,0.603248 -0.2328326,0.232833 -0.6244146,0.232833 z"
         style="fill:#c50087"
         id="path4191" />
      <path
         d="M 3.299424,42.333332 6.0510819,35.475354 H 3.1089246 v 1.248829 H 2.1564277 v -2.11666 h 4.910651 v 0.888997 l -2.7304913,6.836812 z"
         style="fill:#c50087"
         id="path4193" />
      <path
         d="m 10.750051,42.439165 q -1.0689129,0 -1.6933276,-0.592665 -0.6244147,-0.603248 -0.6244147,-1.629828 h 0.952497 q 0,0.634998 0.3704155,1.005414 0.3704158,0.370415 1.0054138,0.370415 0.634998,0 1.005413,-0.370415 0.370416,-0.370416 0.370416,-1.005414 v -0.476248 q 0,-0.634998 -0.359833,-1.005414 -0.359832,-0.370415 -0.973663,-0.370415 H 8.6968912 v -3.757072 h 4.1169038 v 0.867831 H 9.5858884 l 0.021167,2.02141 h 1.248829 q 1.068914,0 1.650995,0.592665 0.582082,0.582081 0.582082,1.650995 v 0.476248 q 0,1.02658 -0.634998,1.629828 -0.624415,0.592665 -1.703912,0.592665 z"
         style="fill:#c50087"
         id="path4195" />
      <path
         d="m 17.057682,37.994179 q -0.349249,0 -0.571498,-0.222249 -0.222249,-0.222249 -0.222249,-0.571498 0,-0.338666 0.222249,-0.560915 0.232833,-0.232833 0.571498,-0.232833 h 0.211666 q 0.338666,0 0.560915,0.232833 0.232833,0.222249 0.232833,0.560915 0,0.349249 -0.22225,0.571498 -0.222249,0.222249 -0.571498,0.222249 z m -0.89958,6.032481 0.582081,-3.23849 h 1.142997 l -0.740831,3.23849 z"
         id="path4197" />
      <path
         d="m -23.47626,68.791581 v -5.820815 h 0.825498 v 0.772581 h 0.02117 q 0.05292,-0.391582 0.306916,-0.634998 0.264583,-0.243416 0.666748,-0.243416 0.380999,0 0.645581,0.22225 0.264583,0.222249 0.380999,0.603248 h 0.01058 q 0.07408,-0.380999 0.328083,-0.603248 0.264582,-0.22225 0.666747,-0.22225 0.560915,0 0.888998,0.423332 0.338665,0.412749 0.338665,1.079497 v 4.423819 h -0.888997 v -4.434402 q 0,-0.349249 -0.169333,-0.550332 -0.169333,-0.211666 -0.465665,-0.211666 -0.285749,0 -0.455082,0.201083 -0.169333,0.201082 -0.169333,0.550331 v 4.444986 h -0.783164 v -4.434402 q 0,-0.349249 -0.169333,-0.550332 -0.169332,-0.211666 -0.455081,-0.211666 -0.296333,0 -0.465666,0.201083 -0.169332,0.201082 -0.169332,0.550331 v 4.444986 z"
         style="fill:#392eff"
         id="path4199" />
      <path
         d="m -14.586304,68.897414 q -1.02658,0 -1.661578,-0.613831 -0.624414,-0.624415 -0.624414,-1.714495 v -1.375829 q 0,-1.09008 0.624414,-1.703911 0.634998,-0.624415 1.661578,-0.624415 0.687915,0 1.195913,0.275166 0.518582,0.275166 0.804331,0.772581 0.285749,0.497415 0.285749,1.174746 v 1.037164 h -3.640655 v 0.550331 q 0,0.645582 0.370416,1.02658 0.370415,0.370416 0.984246,0.370416 0.529165,0 0.867831,-0.201083 0.349249,-0.211666 0.423332,-0.560915 h 0.952497 q -0.09525,0.730248 -0.709081,1.164163 -0.613831,0.423332 -1.534579,0.423332 z m -1.354662,-3.513655 h 2.709325 v -0.296333 q 0,-0.687914 -0.359832,-1.05833 -0.349249,-0.380998 -0.994831,-0.380998 -0.645581,0 -1.005413,0.380998 -0.349249,0.370416 -0.349249,1.05833 z"
         style="fill:#392eff"
         id="path4201" />
      <path
         d="m -7.6542598,68.791581 q -0.7196644,0 -1.1535797,-0.412749 -0.4339153,-0.423332 -0.4339153,-1.121829 v -3.418406 h -1.6721612 v -0.867831 h 1.6721612 v -1.640411 h 0.952497 v 1.640411 h 2.3812424 v 0.867831 h -2.3812424 v 3.418406 q 0,0.296332 0.1693328,0.486831 0.1799161,0.179917 0.4656652,0.179917 h 1.6933279 v 0.86783 z"
         style="fill:#392eff"
         id="path4203" />
      <path
         d="m -1.8863771,68.897414 q -1.0265801,0 -1.6615781,-0.613831 -0.6244147,-0.624415 -0.6244147,-1.714495 v -1.375829 q 0,-1.09008 0.6244147,-1.703911 0.634998,-0.624415 1.6615781,-0.624415 0.6879144,0 1.19591282,0.275166 0.51858168,0.275166 0.80433077,0.772581 0.28574909,0.497415 0.28574909,1.174746 V 66.12459 H -3.2410395 v 0.550331 q 0,0.645582 0.3704155,1.02658 0.3704155,0.370416 0.9842469,0.370416 0.5291649,0 0.8678305,-0.201083 0.34924891,-0.211666 0.42333201,-0.560915 h 0.95249697 q -0.0952497,0.730248 -0.70908108,1.164163 -0.61383138,0.423332 -1.5345784,0.423332 z m -1.3546624,-3.513655 h 2.70932471 v -0.296333 q 0,-0.687914 -0.35983219,-1.05833 -0.34924892,-0.380998 -0.99483012,-0.380998 -0.6455813,0 -1.0054135,0.380998 -0.3492489,0.370416 -0.3492489,1.05833 z"
         style="fill:#392eff"
         id="path4205" />
      <path
         d="m 2.4739267,68.791581 v -5.820815 h 0.9524969 v 1.111247 h 0.021167 q 0.074083,-0.560915 0.4762485,-0.888997 0.4021654,-0.328083 1.0794966,-0.328083 0.9101637,0 1.3969955,0.550332 0.4974151,0.539748 0.4974151,1.545162 v 0.497415 h -0.952497 v -0.497415 q 0,-1.269996 -1.238246,-1.269996 -0.6244147,0 -0.952497,0.359832 -0.3280823,0.359832 -0.3280823,1.037163 v 3.704155 z"
         style="fill:#392eff"
         id="path4207" />
      <path
         d="m 10.580719,68.876248 q -0.973664,0 -1.5134123,-0.433916 -0.529165,-0.444498 -0.529165,-1.248829 h 0.952497 q 0,0.402165 0.2857491,0.634998 0.2857492,0.222249 0.8043312,0.222249 h 0.465665 q 0.529165,0 0.814914,-0.232832 0.296332,-0.232833 0.296332,-0.656165 0,-0.751414 -0.687914,-0.846664 L 9.8610542,66.082256 Q 9.2683894,65.99759 8.9403071,65.595425 8.6122248,65.182676 8.6122248,64.515928 q 0,-0.761997 0.5185817,-1.195913 Q 9.6599715,62.8861 10.580719,62.8861 h 0.465665 q 0.846664,0 1.375829,0.423332 0.539748,0.412749 0.582081,1.09008 h -0.96308 q -0.02117,-0.306916 -0.296332,-0.507999 -0.264583,-0.201082 -0.698498,-0.201082 h -0.465665 q -0.486832,0 -0.761998,0.222249 -0.2751658,0.222249 -0.2751658,0.603248 0,0.613831 0.5609148,0.698498 l 1.502829,0.211666 q 1.481662,0.211666 1.481662,1.735661 0,0.814914 -0.539749,1.269996 -0.529165,0.444499 -1.502828,0.444499 z"
         style="fill:#392eff"
         id="path4209" />
      <path
         d="M 19.121426,70.061577 Q 17.608014,69.722912 16.771933,68.643415 15.946436,67.563918 15.946436,65.93409 v -1.904994 q 0,-1.629828 0.825497,-2.709324 0.836081,-1.079497 2.349493,-1.418163 v 0.920748 q -0.677331,0.158749 -1.18533,0.603248 -0.497415,0.444498 -0.772581,1.111246 -0.264582,0.656165 -0.264582,1.492245 v 1.904994 q 0,0.825498 0.264582,1.492246 0.275166,0.666747 0.772581,1.111246 0.507999,0.444499 1.18533,0.603248 z"
         id="path4211" />
      <path
         d="m 20.867655,68.791581 2.063743,-2.995074 -1.936744,-2.825741 h 1.12183 l 1.15358,1.799161 q 0.07408,0.116417 0.137582,0.253999 0.07408,0.137583 0.116417,0.22225 0.03175,-0.08467 0.09525,-0.22225 0.07408,-0.137582 0.148167,-0.253999 l 1.153579,-1.799161 h 1.12183 l -1.936744,2.836325 2.05316,2.98449 h -1.121829 l -1.24883,-1.904994 q -0.07408,-0.116416 -0.148166,-0.264582 -0.0635,-0.15875 -0.116416,-0.253999 -0.04233,0.09525 -0.127,0.253999 -0.07408,0.148166 -0.158749,0.264582 l -1.24883,1.904994 z"
         id="path4213" />
      <path
         d="M 27.905529,70.061577 V 69.14083 q 0.687915,-0.158749 1.18533,-0.603248 0.497415,-0.444499 0.761997,-1.111246 0.275166,-0.666748 0.275166,-1.492246 v -1.904994 q 0,-0.83608 -0.275166,-1.492245 -0.264582,-0.666748 -0.761997,-1.111246 -0.497415,-0.444499 -1.18533,-0.603248 v -0.920748 q 1.513412,0.338666 2.33891,1.418163 0.83608,1.079496 0.83608,2.709324 v 1.904994 q 0,1.629828 -0.83608,2.709325 -0.825498,1.079497 -2.33891,1.418162 z"
         id="path4215" />
    </g>
  </g>
</svg>
