<?xml version="1.0" encoding="UTF-8" standalone="no"?>
<!-- Created with Inkscape (http://www.inkscape.org/) -->

<svg
   width="351.89581mm"
   height="264.58334mm"
   viewBox="0 0 351.89581 264.58335"
   version="1.1"
   id="svg34944"
   xmlns="http://www.w3.org/2000/svg"
   xmlns:svg="http://www.w3.org/2000/svg">
  <defs
     id="defs34941">
    <marker
       style="overflow:visible"
       id="Arrow1Mend"
       refX="0"
       refY="0"
       orient="auto">
      <path
         transform="matrix(-0.4,0,0,-0.4,-4,0)"
         style="fill:context-stroke;fill-rule:evenodd;stroke:context-stroke;stroke-width:1pt"
         d="M 0,0 5,-5 -12.5,0 5,5 Z"
         id="path192801" />
    </marker>
    <marker
       style="overflow:visible"
       id="Arrow2Lend"
       refX="0"
       refY="0"
       orient="auto">
      <path
         transform="matrix(-1.1,0,0,-1.1,-1.1,0)"
         d="M 8.7185878,4.0337352 -2.2072895,0.01601326 8.7185884,-4.0017078 c -1.7454984,2.3720609 -1.7354408,5.6174519 -6e-7,8.035443 z"
         style="fill:context-stroke;fill-rule:evenodd;stroke:context-stroke;stroke-width:0.625;stroke-linejoin:round"
         id="path192813" />
    </marker>
  </defs>
  <g
     id="layer1"
     transform="translate(55.562496,-10.583333)">
    <path
       id="rect33815"
       style="fill:#abd9e9;stroke:#000000;stroke-width:0.529167"
       d="M 16.060566,175.69011 H 204.10756 v 89.89247 H 16.060566 Z" />
    <path
       id="rect21815"
       style="fill:#abd9e9;stroke:#000000;stroke-width:0.529167"
       d="M 20.407511,20.312368 H 195.29702 V 118.93258 H 20.407511 Z" />
    <g
       id="g33486"
       transform="translate(-57.605645,33.046845)">
      <path
         id="path33482"
         style="fill:#abd9e9;stroke:none;stroke-width:0.529167;stroke-miterlimit:4;stroke-dasharray:none;stroke-opacity:1"
         d="M 127.20367,180.04367 V 77.880542 h 15.875 V 180.04367 c 0.54761,10.80894 -13.73514,18.8681 -15.875,0 z" />
      <path
         id="path33484"
         style="fill:none;stroke:#000000;stroke-width:0.529167;stroke-miterlimit:4;stroke-dasharray:none;stroke-opacity:1"
         d="m 143.07867,77.107189 v 73.458421 m -15.875,0 V 77.107189" />
    </g>
    <g
       id="g33400">
      <path
         id="rect31623"
         style="fill:#abd9e9;stroke:none;stroke-width:0.529167;stroke-miterlimit:4;stroke-dasharray:none;stroke-opacity:1"
         d="m 116.75366,148.51752 h 99.1489 v 15.875 h -99.1489 c -13.39458,0.15286 -20.662984,-5.70829 -20.503684,-18.86116 V 110.1499 h 15.875004 v 35.38146 c 0.066,2.60663 2.018,2.99985 4.62868,2.98616 z" />
      <path
         id="path33261"
         style="fill:none;stroke:#000000;stroke-width:0.529167;stroke-miterlimit:4;stroke-dasharray:none;stroke-opacity:1"
         d="m 111.89245,110.1499 v 35.38146 c 0.066,2.60663 2.018,2.99985 4.62868,2.98616 h 99.38143 m 0.45814,15.875 h -99.83957 c -13.39458,0.15286 -20.662985,-5.70829 -20.503685,-18.86116 V 110.1499" />
    </g>
    <g
       id="g95573"
       transform="translate(204.01894)">
      <path
         id="rect95569"
         style="opacity:1;fill:#abd9e9;stroke-width:0.529167"
         d="M -21.166666,58.208332 H 31.750002 V 74.083327 H -21.166666 Z" />
      <path
         id="path95571"
         style="opacity:1;fill:#abd9e9;stroke:#000000;stroke-width:0.529167"
         d="m -21.166666,58.208332 h 52.916668 m 0,15.874995 h -52.916668" />
    </g>
    <g
       id="g95565">
      <g
         id="g6785">
        <path
           id="rect95425"
           style="opacity:1;fill:#abd9e9;stroke-width:0.529167"
           d="M -24.29896,58.208332 H 31.750002 V 74.083328 H -24.29896 Z" />
        <path
           id="rect89427"
           style="opacity:1;fill:#abd9e9;stroke:#000000;stroke-width:0.529167"
           d="m -24.302296,58.208332 h 56.052298 m 0,15.874995 h -56.052298" />
      </g>
    </g>
    <g
       id="text36489"
       style="font-size:10.5833px;line-height:1.25;font-family:'JetBrains Mono';-inkscape-font-specification:'JetBrains Mono';text-align:center;text-anchor:middle;stroke-width:0.264583" />
    <g
       aria-label="Quantity&lt;Meters, T&gt;

T value_ = 1.75;"
       id="text44149"
       style="font-size:10.5833px;line-height:1.25;font-family:'JetBrains Mono';-inkscape-font-specification:'JetBrains Mono';stroke-width:0.264583">
      <path
         d="m 50.599234,44.238326 -1.09008,-1.799161 q -0.03175,0 -0.0635,0 -0.740831,0 -1.291162,-0.285749 -0.550332,-0.285749 -0.857248,-0.804331 -0.306915,-0.518581 -0.306915,-1.217079 V 36.80885 q 0,-0.698498 0.296332,-1.21708 0.306916,-0.518581 0.857247,-0.804331 0.560915,-0.285749 1.301746,-0.285749 0.740831,0 1.291163,0.285749 0.550331,0.28575 0.857247,0.804331 0.306916,0.518582 0.306916,1.21708 v 3.323156 q 0,0.698498 -0.306916,1.227662 -0.296332,0.518582 -0.846664,0.793748 l 1.280579,2.08491 z m -1.15358,-2.963324 q 0.550332,0 0.836081,-0.296332 0.296332,-0.306916 0.296332,-0.846664 V 36.80885 q 0,-0.539749 -0.306916,-0.846664 -0.296332,-0.306916 -0.825497,-0.306916 -0.529165,0 -0.836081,0.306916 -0.296332,0.306915 -0.296332,0.846664 v 3.323156 q 0,0.539748 0.285749,0.846664 0.296333,0.296332 0.846664,0.296332 z"
         style="font-weight:bold"
         id="path7799" />
      <path
         d="m 55.795618,42.439165 q -1.111247,0 -1.746245,-0.613831 -0.634998,-0.624415 -0.634998,-1.693328 v -3.619489 h 1.322913 v 3.608905 q 0,0.550332 0.275166,0.857248 0.275165,0.306915 0.783164,0.306915 0.497415,0 0.772581,-0.306915 0.285749,-0.306916 0.285749,-0.857248 v -3.608905 h 1.322912 v 3.619489 q 0,1.068913 -0.645581,1.693328 -0.645581,0.613831 -1.735661,0.613831 z"
         style="font-weight:bold"
         id="path7801" />
      <path
         d="m 61.5,42.439165 q -0.888997,0 -1.407579,-0.497415 -0.507998,-0.507998 -0.507998,-1.322912 0,-0.846664 0.582081,-1.34408 0.582082,-0.507998 1.598079,-0.507998 h 1.418162 v -0.412749 q 0,-0.878413 -1.02658,-0.878413 -0.465665,0 -0.740831,0.179916 -0.275166,0.179916 -0.306916,0.507998 h -1.269996 q 0.04233,-0.783164 0.656165,-1.269996 0.624414,-0.486832 1.672161,-0.486832 1.111246,0 1.725078,0.518582 0.613831,0.518582 0.613831,1.460495 v 3.947571 h -1.291162 v -1.09008 q -0.07408,0.560915 -0.529165,0.878414 -0.455082,0.317499 -1.18533,0.317499 z m 0.423332,-1.079497 q 0.582082,0 0.920747,-0.285749 0.338666,-0.285749 0.338666,-0.761997 v -0.687915 h -1.354663 q -0.433915,0 -0.687914,0.243416 -0.253999,0.243416 -0.253999,0.624415 0,0.391582 0.264582,0.634998 0.275166,0.232832 0.772581,0.232832 z"
         style="font-weight:bold"
         id="path7803" />
      <path
         d="m 66.135469,42.333332 v -5.820815 h 1.291162 v 1.09008 q 0.105833,-0.550331 0.518582,-0.86783 0.412749,-0.328083 1.047747,-0.328083 0.857247,0 1.365245,0.571498 0.518582,0.571499 0.518582,1.534579 v 3.820571 H 69.553875 V 38.67151 q 0,-0.539748 -0.28575,-0.825497 -0.275165,-0.296332 -0.751414,-0.296332 -0.497415,0 -0.783164,0.296332 -0.275166,0.296332 -0.275166,0.846664 v 3.640655 z"
         style="font-weight:bold"
         id="path7805" />
      <path
         d="m 75.42759,42.333332 q -0.814914,0 -1.301746,-0.465665 -0.476248,-0.476249 -0.476248,-1.280579 V 37.70843 h -1.608662 v -1.195913 h 1.608662 v -1.640411 h 1.333496 v 1.640411 h 2.317742 v 1.195913 h -2.317742 v 2.846908 q 0,0.253999 0.137583,0.423332 0.148166,0.158749 0.402165,0.158749 h 1.725078 v 1.195913 z"
         style="font-weight:bold"
         id="path7807" />
      <path
         d="m 78.824814,42.333332 v -1.195913 h 1.98966 V 37.70843 H 79.03648 v -1.195913 h 3.100907 v 4.624902 h 1.788577 v 1.195913 z m 2.561158,-6.794478 q -0.402165,0 -0.634998,-0.201083 -0.232832,-0.211666 -0.232832,-0.560915 0,-0.349249 0.232832,-0.550331 0.232833,-0.211666 0.634998,-0.211666 0.402166,0 0.634998,0.211666 0.232833,0.201082 0.232833,0.550331 0,0.349249 -0.232833,0.560915 -0.232832,0.201083 -0.634998,0.201083 z"
         style="font-weight:bold"
         id="path7809" />
      <path
         d="m 88.127517,42.333332 q -0.814914,0 -1.301746,-0.465665 -0.476249,-0.476249 -0.476249,-1.280579 V 37.70843 h -1.608661 v -1.195913 h 1.608661 v -1.640411 h 1.333496 v 1.640411 h 2.317743 v 1.195913 h -2.317743 v 2.846908 q 0,0.253999 0.137583,0.423332 0.148166,0.158749 0.402165,0.158749 h 1.725078 v 1.195913 z"
         style="font-weight:bold"
         id="path7811" />
      <path
         d="m 92.466654,44.238326 0.825497,-2.222493 -2.190743,-5.503316 h 1.396996 l 1.121829,2.973907 q 0.09525,0.264583 0.1905,0.582082 0.09525,0.306916 0.137583,0.571498 0.03175,-0.264582 0.116416,-0.571498 0.09525,-0.317499 0.190499,-0.582082 l 1.037164,-2.973907 h 1.396995 l -2.836324,7.725809 z"
         style="font-weight:bold"
         id="path7813" />
      <path
         d="m 102.61602,41.740667 -4.741316,-2.233076 v -1.322912 l 4.741316,-2.233077 v 1.21708 l -3.069154,1.418162 q -0.211666,0.09525 -0.423332,0.169333 -0.201083,0.0635 -0.317499,0.08467 0.116416,0.02117 0.328082,0.08467 0.211666,0.0635 0.412749,0.158749 l 3.069154,1.418162 z"
         style="font-weight:bold"
         id="path7815" />
      <path
         d="m 103.99184,42.333332 v -7.725809 h 1.72507 l 0.86783,3.323156 0.87842,-3.323156 h 1.73566 v 7.725809 h -1.23825 v -3.249073 q 0,-0.666748 0.0318,-1.375829 0.0423,-0.719664 0.0952,-1.386412 0.0529,-0.677331 0.11642,-1.227663 l -1.09008,3.884071 h -1.09008 l -1.04775,-3.788821 q 0.0953,0.730247 0.16934,1.746244 0.0847,1.005414 0.0847,2.14841 v 3.249073 z"
         style="fill:#392eff"
         id="path7817" />
      <path
         d="m 112.95588,42.439165 q -0.74084,0 -1.29117,-0.285749 -0.55033,-0.285749 -0.85724,-0.804331 -0.29634,-0.529165 -0.29634,-1.238246 V 38.73501 q 0,-0.709081 0.29634,-1.227663 0.30691,-0.529165 0.85724,-0.814914 0.55033,-0.285749 1.29117,-0.285749 0.73024,0 1.26999,0.285749 0.55033,0.285749 0.84666,0.804331 0.30692,0.507999 0.30692,1.195913 v 1.05833 h -3.59832 v 0.402165 q 0,0.592665 0.30691,0.899581 0.30692,0.296332 0.86784,0.296332 0.41274,0 0.69849,-0.137583 0.29634,-0.148166 0.34925,-0.423332 h 1.31233 q -0.13758,0.751415 -0.78316,1.206496 -0.64558,0.444499 -1.57691,0.444499 z m -1.17475,-3.746488 v 0.201083 l 2.32832,-0.01058 v -0.201082 q 0,-0.603248 -0.29633,-0.931331 -0.29633,-0.328082 -0.85724,-0.328082 -0.58209,0 -0.87842,0.338666 -0.29633,0.328082 -0.29633,0.93133 z"
         style="fill:#392eff"
         id="path7819" />
      <path
         d="m 119.87734,42.333332 q -0.81492,0 -1.30175,-0.465665 -0.47625,-0.476249 -0.47625,-1.280579 V 37.70843 h -1.60866 v -1.195913 h 1.60866 v -1.640411 h 1.3335 v 1.640411 h 2.31774 v 1.195913 h -2.31774 v 2.846908 q 0,0.253999 0.13758,0.423332 0.14817,0.158749 0.40217,0.158749 h 1.72507 v 1.195913 z"
         style="fill:#392eff"
         id="path7821" />
      <path
         d="m 125.6558,42.439165 q -0.74083,0 -1.29116,-0.285749 -0.55033,-0.285749 -0.85725,-0.804331 -0.29633,-0.529165 -0.29633,-1.238246 V 38.73501 q 0,-0.709081 0.29633,-1.227663 0.30692,-0.529165 0.85725,-0.814914 0.55033,-0.285749 1.29116,-0.285749 0.73025,0 1.27,0.285749 0.55033,0.285749 0.84666,0.804331 0.30692,0.507999 0.30692,1.195913 v 1.05833 h -3.59833 v 0.402165 q 0,0.592665 0.30692,0.899581 0.30691,0.296332 0.86783,0.296332 0.41275,0 0.6985,-0.137583 0.29633,-0.148166 0.34925,-0.423332 h 1.31233 q -0.13759,0.751415 -0.78317,1.206496 -0.64558,0.444499 -1.57691,0.444499 z m -1.17475,-3.746488 v 0.201083 l 2.32833,-0.01058 v -0.201082 q 0,-0.603248 -0.29633,-0.931331 -0.29634,-0.328082 -0.85725,-0.328082 -0.58208,0 -0.87841,0.338666 -0.29634,0.328082 -0.29634,0.93133 z"
         style="fill:#392eff"
         id="path7823" />
      <path
         d="m 129.84677,42.333332 v -5.820815 h 1.29117 v 1.132413 q 0.10583,-0.571498 0.51858,-0.89958 0.42333,-0.338666 1.09008,-0.338666 0.889,0 1.38641,0.571498 0.49742,0.571499 0.49742,1.598079 v 0.550331 h -1.32292 V 38.63976 q 0,-0.529164 -0.27516,-0.80433 -0.27517,-0.285749 -0.78317,-0.285749 -0.52916,0 -0.80433,0.317499 -0.27516,0.317499 -0.27516,0.89958 v 3.566572 z"
         style="fill:#392eff"
         id="path7825" />
      <path
         d="m 138.10173,42.428582 q -1.03716,0 -1.64041,-0.465665 -0.60325,-0.476249 -0.60325,-1.28058 h 1.30174 q 0,0.338666 0.24342,0.518582 0.254,0.179916 0.6985,0.179916 h 0.46566 q 0.47625,0 0.73025,-0.179916 0.26458,-0.179916 0.26458,-0.518582 0,-0.317499 -0.17991,-0.465665 -0.17992,-0.158749 -0.55033,-0.211666 l -1.44992,-0.190499 q -0.69849,-0.09525 -1.07949,-0.539749 -0.37042,-0.444498 -0.37042,-1.153579 0,-0.825498 0.55033,-1.259413 0.55034,-0.444498 1.5875,-0.444498 h 0.48683 q 0.97366,0 1.56633,0.444498 0.59266,0.444499 0.61383,1.18533 h -1.31233 q -0.0106,-0.275166 -0.24341,-0.433916 -0.23284,-0.169332 -0.62442,-0.169332 h -0.48683 q -0.42333,0 -0.64558,0.179916 -0.22225,0.169333 -0.22225,0.465665 0,0.264582 0.15875,0.391582 0.16933,0.127 0.48683,0.158749 l 1.36525,0.1905 q 0.80433,0.09525 1.20649,0.571498 0.41275,0.465665 0.41275,1.259413 0,0.846664 -0.58208,1.312329 -0.5715,0.455082 -1.68275,0.455082 z"
         style="fill:#392eff"
         id="path7827" />
      <path
         d="m 143.53095,44.02666 0.56091,-3.23849 h 1.51342 l -0.80433,3.23849 z"
         style="font-weight:bold"
         id="path7829" />
      <path
         d="m 156.72829,42.333332 v -6.529896 h -2.02142 v -1.195913 h 5.37632 v 1.195913 h -2.02141 v 6.529896 z"
         style="font-weight:bold"
         id="path7831" />
      <path
         d="m 161.37434,41.740667 v -1.217079 l 3.06916,-1.418162 q 0.21166,-0.09525 0.41275,-0.15875 0.21166,-0.0635 0.32808,-0.09525 -0.11642,-0.02117 -0.32808,-0.08467 -0.21167,-0.0635 -0.41275,-0.148166 l -3.06916,-1.428746 v -1.238246 l 4.74132,2.233077 v 1.322912 z"
         style="font-weight:bold"
         id="path7833" />
      <path
         d="m 48.969406,68.791581 v -6.857978 h -2.11666 v -0.867831 h 5.185817 v 0.867831 h -2.11666 v 6.857978 z"
         id="path7835" />
      <path
         d="M 61.521167,68.791581 59.54209,62.970766 h 1.02658 l 1.269996,3.915821 q 0.116416,0.349249 0.201082,0.677331 0.08467,0.317499 0.127,0.497415 0.05292,-0.179916 0.127,-0.497415 0.07408,-0.328082 0.179916,-0.677331 l 1.269996,-3.915821 h 1.005413 l -1.979077,5.820815 z"
         id="path7837" />
      <path
         d="m 67.987546,68.897414 q -0.89958,0 -1.428745,-0.497415 -0.529165,-0.507998 -0.529165,-1.322912 0,-0.539749 0.243416,-0.941914 0.243416,-0.402165 0.677331,-0.624415 0.433915,-0.232832 0.99483,-0.232832 h 1.799161 v -0.455082 q 0,-1.132413 -1.238246,-1.132413 -0.550332,0 -0.888997,0.201082 -0.338666,0.201083 -0.359832,0.560915 h -0.952497 q 0.05292,-0.687914 0.634998,-1.132413 0.592664,-0.455082 1.566328,-0.455082 1.05833,0 1.619245,0.507999 0.571498,0.507998 0.571498,1.418162 v 4.000487 h -0.941914 v -1.05833 h -0.02117 q -0.08467,0.539748 -0.539749,0.857247 -0.455081,0.306916 -1.206496,0.306916 z m 0.232833,-0.804331 q 0.698498,0 1.111246,-0.338665 0.412749,-0.338666 0.412749,-0.920747 v -0.814914 h -1.693328 q -0.465665,0 -0.761998,0.285749 -0.285749,0.275166 -0.285749,0.740831 0,0.486831 0.317499,0.772581 0.328083,0.275165 0.899581,0.275165 z"
         id="path7839" />
      <path
         d="m 75.692173,68.791581 q -0.772581,0 -1.238246,-0.444498 -0.455082,-0.455082 -0.455082,-1.195913 v -5.217567 h -2.010827 v -0.867831 h 2.963324 v 6.085398 q 0,0.359832 0.201082,0.571498 0.201083,0.201083 0.539749,0.201083 h 1.799161 v 0.86783 z"
         id="path7841" />
      <path
         d="m 81.18489,68.897414 q -1.005414,0 -1.608662,-0.592665 -0.603248,-0.603248 -0.603248,-1.629828 v -3.704155 h 0.952497 v 3.704155 q 0,0.634998 0.338666,1.015997 0.338665,0.370415 0.920747,0.370415 0.592664,0 0.93133,-0.370415 0.349249,-0.380999 0.349249,-1.015997 v -3.704155 h 0.952497 v 3.704155 q 0,1.02658 -0.613832,1.629828 -0.613831,0.592665 -1.619244,0.592665 z"
         id="path7843" />
      <path
         d="m 87.545435,68.897414 q -1.02658,0 -1.661578,-0.613831 -0.624415,-0.624415 -0.624415,-1.714495 v -1.375829 q 0,-1.09008 0.624415,-1.703911 0.634998,-0.624415 1.661578,-0.624415 0.687915,0 1.195913,0.275166 0.518582,0.275166 0.804331,0.772581 0.285749,0.497415 0.285749,1.174746 v 1.037164 h -3.640655 v 0.550331 q 0,0.645582 0.370415,1.02658 0.370416,0.370416 0.984247,0.370416 0.529165,0 0.867831,-0.201083 0.349249,-0.211666 0.423332,-0.560915 h 0.952497 q -0.09525,0.730248 -0.709081,1.164163 -0.613832,0.423332 -1.534579,0.423332 z m -1.354662,-3.513655 h 2.709324 v -0.296333 q 0,-0.687914 -0.359832,-1.05833 -0.349249,-0.380998 -0.99483,-0.380998 -0.645581,0 -1.005413,0.380998 -0.349249,0.370416 -0.349249,1.05833 z"
         id="path7845" />
      <path
         d="m 91.355407,69.849911 v -0.793747 h 5.079984 v 0.793747 z"
         id="path7847" />
      <path
         d="m 104.31992,64.452428 v -0.846664 h 4.55082 v 0.846664 z m 0,2.539992 v -0.846664 h 4.55082 v 0.846664 z"
         id="path7849" />
      <path
         d="m 117.07276,68.791581 v -0.86783 h 2.0955 V 61.89127 l -2.0955,1.566328 v -1.09008 l 1.74625,-1.301746 h 1.30174 v 6.857979 h 1.7145 v 0.86783 z"
         style="fill:#c50087"
         id="path7851" />
      <path
         d="m 125.64522,68.897414 q -0.39159,0 -0.635,-0.232832 -0.23283,-0.232833 -0.23283,-0.603249 0,-0.391582 0.23283,-0.634997 0.24341,-0.243416 0.635,-0.243416 0.39158,0 0.62441,0.243416 0.24342,0.243415 0.24342,0.634997 0,0.370416 -0.24342,0.603249 -0.23283,0.232832 -0.62441,0.232832 z"
         style="fill:#c50087"
         id="path7853" />
      <path
         d="m 130.83102,68.791581 2.75166,-6.857978 h -2.94216 v 1.248829 h -0.9525 v -2.11666 h 4.91066 v 0.888998 l -2.7305,6.836811 z"
         style="fill:#c50087"
         id="path7855" />
      <path
         d="m 138.28164,68.897414 q -1.06891,0 -1.69332,-0.592665 -0.62442,-0.603248 -0.62442,-1.629828 h 0.9525 q 0,0.634998 0.37041,1.005414 0.37042,0.370415 1.00542,0.370415 0.635,0 1.00541,-0.370415 0.37042,-0.370416 0.37042,-1.005414 v -0.476248 q 0,-0.634998 -0.35984,-1.005414 -0.35983,-0.370415 -0.97366,-0.370415 h -2.10608 v -3.757072 h 4.11691 v 0.867831 h -3.22791 l 0.0212,2.02141 h 1.24883 q 1.06891,0 1.65099,0.592665 0.58208,0.582081 0.58208,1.650995 v 0.476248 q 0,1.02658 -0.63499,1.629828 -0.62442,0.592665 -1.70392,0.592665 z"
         style="fill:#c50087"
         id="path7857" />
      <path
         d="m 144.58928,64.452428 q -0.34925,0 -0.5715,-0.222249 -0.22225,-0.222249 -0.22225,-0.571498 0,-0.338666 0.22225,-0.560915 0.23283,-0.232833 0.5715,-0.232833 h 0.21167 q 0.33866,0 0.56091,0.232833 0.23283,0.222249 0.23283,0.560915 0,0.349249 -0.22225,0.571498 -0.22225,0.222249 -0.57149,0.222249 z m -0.89958,6.032481 0.58208,-3.23849 h 1.143 l -0.74083,3.23849 z"
         id="path7859" />
    </g>
    <g
       aria-label="Quantity&lt;Feet, T&gt;

T value_ = 5.74147;"
       id="text44793"
       style="font-size:10.5833px;line-height:1.25;font-family:'JetBrains Mono';-inkscape-font-specification:'JetBrains Mono';stroke-width:0.264583">
      <path
         d="m 56.949198,226.7256 -1.09008,-1.79916 q -0.03175,0 -0.0635,0 -0.740831,0 -1.291162,-0.28575 -0.550332,-0.28575 -0.857248,-0.80433 -0.306915,-0.51859 -0.306915,-1.21708 v -3.32316 q 0,-0.6985 0.296332,-1.21708 0.306916,-0.51858 0.857247,-0.80433 0.560915,-0.28575 1.301746,-0.28575 0.740831,0 1.291163,0.28575 0.550331,0.28575 0.857247,0.80433 0.306916,0.51858 0.306916,1.21708 v 3.32316 q 0,0.69849 -0.306916,1.22766 -0.296332,0.51858 -0.846664,0.79375 l 1.280579,2.08491 z m -1.15358,-2.96333 q 0.550332,0 0.836081,-0.29633 0.296332,-0.30692 0.296332,-0.84666 v -3.32316 q 0,-0.53975 -0.306915,-0.84666 -0.296333,-0.30692 -0.825498,-0.30692 -0.529165,0 -0.83608,0.30692 -0.296333,0.30691 -0.296333,0.84666 v 3.32316 q 0,0.53974 0.285749,0.84666 0.296333,0.29633 0.846664,0.29633 z"
         style="font-weight:bold"
         id="path7734" />
      <path
         d="m 62.145582,224.92644 q -1.111247,0 -1.746245,-0.61384 -0.634998,-0.62441 -0.634998,-1.69332 v -3.61949 h 1.322913 v 3.6089 q 0,0.55033 0.275166,0.85725 0.275166,0.30692 0.783164,0.30692 0.497415,0 0.772581,-0.30692 0.285749,-0.30692 0.285749,-0.85725 v -3.6089 h 1.322912 v 3.61949 q 0,1.06891 -0.645581,1.69332 -0.645581,0.61384 -1.735661,0.61384 z"
         style="font-weight:bold"
         id="path7736" />
      <path
         d="m 67.849964,224.92644 q -0.888997,0 -1.407579,-0.49742 -0.507998,-0.508 -0.507998,-1.32291 0,-0.84667 0.582082,-1.34408 0.582081,-0.508 1.598078,-0.508 h 1.418162 v -0.41275 q 0,-0.87841 -1.02658,-0.87841 -0.465665,0 -0.740831,0.17991 -0.275166,0.17992 -0.306916,0.508 h -1.269996 q 0.04233,-0.78316 0.656165,-1.26999 0.624415,-0.48684 1.672161,-0.48684 1.111247,0 1.725078,0.51859 0.613831,0.51858 0.613831,1.46049 v 3.94757 h -1.291162 v -1.09008 q -0.07408,0.56092 -0.529165,0.87842 -0.455082,0.3175 -1.18533,0.3175 z m 0.423332,-1.0795 q 0.582082,0 0.920747,-0.28575 0.338666,-0.28575 0.338666,-0.762 v -0.68791 h -1.354662 q -0.433916,0 -0.687915,0.24341 -0.253999,0.24342 -0.253999,0.62442 0,0.39158 0.264582,0.635 0.275166,0.23283 0.772581,0.23283 z"
         style="font-weight:bold"
         id="path7738" />
      <path
         d="m 72.485433,224.8206 v -5.82081 h 1.291163 v 1.09008 q 0.105832,-0.55033 0.518581,-0.86783 0.412749,-0.32809 1.047747,-0.32809 0.857247,0 1.365246,0.5715 0.518581,0.5715 0.518581,1.53458 v 3.82057 h -1.322912 v -3.66182 q 0,-0.53975 -0.285749,-0.8255 -0.275166,-0.29633 -0.751415,-0.29633 -0.497415,0 -0.783164,0.29633 -0.275166,0.29634 -0.275166,0.84667 v 3.64065 z"
         style="font-weight:bold"
         id="path7740" />
      <path
         d="m 81.777554,224.8206 q -0.814914,0 -1.301745,-0.46566 -0.476249,-0.47625 -0.476249,-1.28058 v -2.87866 h -1.608661 v -1.19591 h 1.608661 v -1.64041 h 1.333496 v 1.64041 h 2.317742 v 1.19591 h -2.317742 v 2.84691 q 0,0.254 0.137583,0.42333 0.148166,0.15875 0.402165,0.15875 h 1.725078 v 1.19591 z"
         style="font-weight:bold"
         id="path7742" />
      <path
         d="m 85.174778,224.8206 v -1.19591 h 1.98966 v -3.42899 h -1.777994 v -1.19591 h 3.100907 v 4.6249 h 1.788577 v 1.19591 z m 2.561158,-6.79448 q -0.402165,0 -0.634998,-0.20108 -0.232832,-0.21166 -0.232832,-0.56091 0,-0.34925 0.232832,-0.55034 0.232833,-0.21166 0.634998,-0.21166 0.402166,0 0.634998,0.21166 0.232833,0.20109 0.232833,0.55034 0,0.34925 -0.232833,0.56091 -0.232832,0.20108 -0.634998,0.20108 z"
         style="font-weight:bold"
         id="path7744" />
      <path
         d="m 94.477481,224.8206 q -0.814914,0 -1.301746,-0.46566 -0.476249,-0.47625 -0.476249,-1.28058 v -2.87866 h -1.608661 v -1.19591 h 1.608661 v -1.64041 h 1.333496 v 1.64041 h 2.317743 v 1.19591 h -2.317743 v 2.84691 q 0,0.254 0.137583,0.42333 0.148166,0.15875 0.402165,0.15875 h 1.725078 v 1.19591 z"
         style="font-weight:bold"
         id="path7746" />
      <path
         d="m 98.816618,226.7256 0.825497,-2.2225 -2.190743,-5.50331 h 1.396996 l 1.12183,2.9739 q 0.09525,0.26459 0.190502,0.58209 0.0952,0.30691 0.13758,0.57149 0.0317,-0.26458 0.11642,-0.57149 0.0953,-0.3175 0.1905,-0.58209 l 1.03716,-2.9739 h 1.39699 l -2.83632,7.72581 z"
         style="font-weight:bold"
         id="path7748" />
      <path
         d="m 108.96599,224.22794 -4.74132,-2.23308 v -1.32291 l 4.74132,-2.23308 v 1.21708 l -3.06916,1.41816 q -0.21167,0.0953 -0.42333,0.16934 -0.20108,0.0635 -0.3175,0.0847 0.11642,0.0212 0.32808,0.0847 0.21167,0.0635 0.41275,0.15875 l 3.06916,1.41816 z"
         style="font-weight:bold"
         id="path7750" />
      <path
         d="m 110.61697,224.8206 v -7.72581 h 4.80481 v 1.22767 h -3.50307 v 2.06374 h 3.22791 v 1.22766 h -3.20674 v 3.20674 z"
         style="fill:#790099"
         id="path7752" />
      <path
         d="m 119.30584,224.92644 q -0.74083,0 -1.29116,-0.28575 -0.55033,-0.28575 -0.85725,-0.80433 -0.29633,-0.52917 -0.29633,-1.23825 v -1.37583 q 0,-0.70908 0.29633,-1.22766 0.30692,-0.52917 0.85725,-0.81492 0.55033,-0.28575 1.29116,-0.28575 0.73025,0 1.27,0.28575 0.55033,0.28575 0.84666,0.80433 0.30691,0.508 0.30691,1.19592 v 1.05833 h -3.59832 v 0.40216 q 0,0.59267 0.30692,0.89958 0.30691,0.29634 0.86783,0.29634 0.41275,0 0.6985,-0.13759 0.29633,-0.14816 0.34925,-0.42333 h 1.31232 q -0.13758,0.75141 -0.78316,1.2065 -0.64558,0.4445 -1.57691,0.4445 z m -1.17475,-3.74649 v 0.20108 l 2.32833,-0.0106 v -0.20109 q 0,-0.60324 -0.29633,-0.93133 -0.29634,-0.32808 -0.85725,-0.32808 -0.58208,0 -0.87841,0.33867 -0.29634,0.32808 -0.29634,0.93133 z"
         style="fill:#790099"
         id="path7754" />
      <path
         d="m 125.6558,224.92644 q -0.74083,0 -1.29116,-0.28575 -0.55033,-0.28575 -0.85725,-0.80433 -0.29633,-0.52917 -0.29633,-1.23825 v -1.37583 q 0,-0.70908 0.29633,-1.22766 0.30692,-0.52917 0.85725,-0.81492 0.55033,-0.28575 1.29116,-0.28575 0.73025,0 1.27,0.28575 0.55033,0.28575 0.84666,0.80433 0.30692,0.508 0.30692,1.19592 v 1.05833 h -3.59832 v 0.40216 q 0,0.59267 0.30691,0.89958 0.30692,0.29634 0.86783,0.29634 0.41275,0 0.6985,-0.13759 0.29633,-0.14816 0.34925,-0.42333 h 1.31233 q -0.13758,0.75141 -0.78317,1.2065 -0.64558,0.4445 -1.57691,0.4445 z m -1.17474,-3.74649 v 0.20108 l 2.32832,-0.0106 v -0.20109 q 0,-0.60324 -0.29633,-0.93133 -0.29633,-0.32808 -0.85725,-0.32808 -0.58208,0 -0.87841,0.33867 -0.29633,0.32808 -0.29633,0.93133 z"
         style="fill:#790099"
         id="path7756" />
      <path
         d="m 132.57726,224.8206 q -0.81491,0 -1.30174,-0.46566 -0.47625,-0.47625 -0.47625,-1.28058 v -2.87866 h -1.60866 v -1.19591 h 1.60866 v -1.64041 h 1.33349 v 1.64041 h 2.31775 v 1.19591 h -2.31775 v 2.84691 q 0,0.254 0.13759,0.42333 0.14816,0.15875 0.40216,0.15875 h 1.72508 v 1.19591 z"
         style="fill:#790099"
         id="path7758" />
      <path
         d="m 137.18099,226.51393 0.56091,-3.23849 h 1.51341 l -0.80433,3.23849 z"
         style="font-weight:bold"
         id="path7760" />
      <path
         d="m 150.37833,224.8206 v -6.52989 h -2.02141 v -1.19592 h 5.37631 v 1.19592 h -2.02141 v 6.52989 z"
         style="font-weight:bold"
         id="path7762" />
      <path
         d="m 155.02438,224.22794 v -1.21708 l 3.06915,-1.41816 q 0.21167,-0.0953 0.41275,-0.15875 0.21167,-0.0635 0.32809,-0.0953 -0.11642,-0.0212 -0.32809,-0.0847 -0.21166,-0.0635 -0.41275,-0.14817 l -3.06915,-1.42874 v -1.23825 l 4.74132,2.23308 v 1.32291 z"
         style="font-weight:bold"
         id="path7764" />
      <path
         d="m 55.31937,251.27885 v -6.85798 h -2.11666 v -0.86783 h 5.185817 v 0.86783 h -2.11666 v 6.85798 z"
         id="path7766" />
      <path
         d="m 67.871131,251.27885 -1.979077,-5.82081 h 1.02658 l 1.269996,3.91582 q 0.116416,0.34925 0.201083,0.67733 0.08467,0.3175 0.126999,0.49741 0.05292,-0.17991 0.127,-0.49741 0.07408,-0.32808 0.179916,-0.67733 l 1.269996,-3.91582 h 1.005413 l -1.979077,5.82081 z"
         id="path7768" />
      <path
         d="m 74.33751,251.38468 q -0.89958,0 -1.428745,-0.49741 -0.529165,-0.508 -0.529165,-1.32291 0,-0.53975 0.243416,-0.94192 0.243416,-0.40216 0.677331,-0.62441 0.433915,-0.23283 0.99483,-0.23283 h 1.799161 v -0.45509 q 0,-1.13241 -1.238246,-1.13241 -0.550332,0 -0.888997,0.20108 -0.338666,0.20109 -0.359832,0.56092 h -0.952497 q 0.05292,-0.68792 0.634998,-1.13241 0.592664,-0.45509 1.566328,-0.45509 1.05833,0 1.619245,0.508 0.571498,0.508 0.571498,1.41816 v 4.00049 h -0.941914 v -1.05833 h -0.02117 q -0.08467,0.53975 -0.539748,0.85725 -0.455082,0.30691 -1.206497,0.30691 z m 0.232833,-0.80433 q 0.698498,0 1.111246,-0.33866 0.412749,-0.33867 0.412749,-0.92075 v -0.81491 H 74.40101 q -0.465665,0 -0.761997,0.28575 -0.285749,0.27516 -0.285749,0.74083 0,0.48683 0.317499,0.77258 0.328082,0.27516 0.89958,0.27516 z"
         id="path7770" />
      <path
         d="m 82.042137,251.27885 q -0.772581,0 -1.238246,-0.4445 -0.455082,-0.45508 -0.455082,-1.19591 v -5.21757 h -2.010827 v -0.86783 h 2.963324 v 6.0854 q 0,0.35983 0.201083,0.5715 0.201082,0.20108 0.539748,0.20108 h 1.799161 v 0.86783 z"
         id="path7772" />
      <path
         d="m 87.534854,251.38468 q -1.005414,0 -1.608662,-0.59266 -0.603248,-0.60325 -0.603248,-1.62983 v -3.70415 h 0.952497 v 3.70415 q 0,0.635 0.338666,1.016 0.338665,0.37041 0.920747,0.37041 0.592665,0 0.93133,-0.37041 0.349249,-0.381 0.349249,-1.016 v -3.70415 h 0.952497 v 3.70415 q 0,1.02658 -0.613831,1.62983 -0.613832,0.59266 -1.619245,0.59266 z"
         id="path7774" />
      <path
         d="m 93.895399,251.38468 q -1.02658,0 -1.661578,-0.61383 -0.624414,-0.62441 -0.624414,-1.71449 v -1.37583 q 0,-1.09008 0.624414,-1.70391 0.634998,-0.62442 1.661578,-0.62442 0.687915,0 1.195913,0.27517 0.518582,0.27517 0.804331,0.77258 0.285749,0.49742 0.285749,1.17475 v 1.03716 h -3.640655 v 0.55033 q 0,0.64558 0.370415,1.02658 0.370416,0.37042 0.984247,0.37042 0.529165,0 0.867831,-0.20109 0.349249,-0.21166 0.423332,-0.56091 h 0.952497 q -0.09525,0.73025 -0.709081,1.16416 -0.613832,0.42333 -1.534579,0.42333 z m -1.354662,-3.51365 h 2.709325 v -0.29633 q 0,-0.68792 -0.359833,-1.05833 -0.349248,-0.381 -0.99483,-0.381 -0.645581,0 -1.005413,0.381 -0.349249,0.37041 -0.349249,1.05833 z"
         id="path7776" />
      <path
         d="m 97.705372,252.33718 v -0.79375 h 5.079988 v 0.79375 z"
         id="path7778" />
      <path
         d="m 110.66988,246.9397 v -0.84667 h 4.55082 v 0.84667 z m 0,2.53999 v -0.84666 h 4.55082 v 0.84666 z"
         id="path7780" />
      <path
         d="m 125.58172,251.38468 q -1.06891,0 -1.69333,-0.59266 -0.62441,-0.60325 -0.62441,-1.62983 h 0.95249 q 0,0.635 0.37042,1.00542 0.37042,0.37041 1.00541,0.37041 0.635,0 1.00542,-0.37041 0.37041,-0.37042 0.37041,-1.00542 v -0.47625 q 0,-0.63499 -0.35983,-1.00541 -0.35983,-0.37042 -0.97366,-0.37042 h -2.10608 v -3.75707 h 4.1169 v 0.86783 h -3.2279 l 0.0212,2.02141 h 1.24883 q 1.06892,0 1.651,0.59267 0.58208,0.58208 0.58208,1.65099 v 0.47625 q 0,1.02658 -0.635,1.62983 -0.62441,0.59266 -1.70391,0.59266 z"
         style="fill:#c50087"
         id="path7782" />
      <path
         d="m 131.99518,251.38468 q -0.39158,0 -0.635,-0.23283 -0.23283,-0.23283 -0.23283,-0.60325 0,-0.39158 0.23283,-0.63499 0.24342,-0.24342 0.635,-0.24342 0.39158,0 0.62441,0.24342 0.24342,0.24341 0.24342,0.63499 0,0.37042 -0.24342,0.60325 -0.23283,0.23283 -0.62441,0.23283 z"
         style="fill:#c50087"
         id="path7784" />
      <path
         d="m 137.18099,251.27885 2.75165,-6.85798 h -2.94215 v 1.24883 h -0.9525 v -2.11666 h 4.91065 v 0.889 l -2.73049,6.83681 z"
         style="fill:#c50087"
         id="path7786" />
      <path
         d="m 145.75344,251.27885 v -1.69333 h -3.49249 v -1.49224 l 2.81516,-4.54024 h 1.07949 l -2.94215,4.7519 v 0.41275 h 2.53999 v -1.88382 h 0.9525 v 4.44498 z"
         style="fill:#c50087"
         id="path7788" />
      <path
         d="m 148.82258,251.27885 v -0.86783 h 2.0955 v -6.03248 l -2.0955,1.56633 v -1.09008 l 1.74625,-1.30175 h 1.30174 v 6.85798 h 1.7145 v 0.86783 z"
         style="fill:#c50087"
         id="path7790" />
      <path
         d="m 158.45337,251.27885 v -1.69333 h -3.49249 v -1.49224 l 2.81516,-4.54024 h 1.07949 l -2.94216,4.7519 v 0.41275 h 2.54 v -1.88382 h 0.95249 v 4.44498 z"
         style="fill:#c50087"
         id="path7792" />
      <path
         d="m 162.58083,251.27885 2.75166,-6.85798 h -2.94216 v 1.24883 h -0.95249 v -2.11666 h 4.91065 v 0.889 l -2.73049,6.83681 z"
         style="fill:#c50087"
         id="path7794" />
      <path
         d="m 169.98913,246.9397 q -0.34925,0 -0.5715,-0.22225 -0.22225,-0.22225 -0.22225,-0.5715 0,-0.33866 0.22225,-0.56091 0.23284,-0.23284 0.5715,-0.23284 h 0.21167 q 0.33866,0 0.56091,0.23284 0.23284,0.22225 0.23284,0.56091 0,0.34925 -0.22225,0.5715 -0.22225,0.22225 -0.5715,0.22225 z m -0.89958,6.03248 0.58208,-3.23849 h 1.143 l -0.74083,3.23849 z"
         id="path7796" />
    </g>
    <g
       aria-label="T x = 1.75;

    meters(x)"
       id="text49219"
       style="font-size:10.5833px;line-height:1.25;font-family:'JetBrains Mono';-inkscape-font-specification:'JetBrains Mono';stroke-width:0.264583">
      <path
         d="m -46.812371,42.333332 v -6.857978 h -2.11666 v -0.867831 h 5.185817 v 0.867831 h -2.11666 v 6.857978 z"
         id="path7699" />
      <path
         d="m -36.28202,42.333332 2.063744,-2.995074 -1.936744,-2.825741 h 1.121829 l 1.15358,1.799161 q 0.07408,0.116416 0.137583,0.253999 0.07408,0.137583 0.116416,0.22225 0.03175,-0.08467 0.09525,-0.22225 0.07408,-0.137583 0.148166,-0.253999 l 1.15358,-1.799161 h 1.12183 l -1.936744,2.836325 2.05316,2.98449 h -1.12183 l -1.248829,-1.904994 q -0.07408,-0.116416 -0.148166,-0.264582 -0.0635,-0.15875 -0.116417,-0.254 -0.04233,0.09525 -0.126999,0.254 -0.07408,0.148166 -0.15875,0.264582 l -1.248829,1.904994 z"
         id="path7701" />
      <path
         d="m -23.211677,37.994179 v -0.846664 h 4.550819 v 0.846664 z m 0,2.539992 v -0.846664 h 4.550819 v 0.846664 z"
         id="path7703" />
      <path
         d="m -10.458834,42.333332 v -0.867831 h 2.0954931 v -6.03248 l -2.0954931,1.566328 v -1.09008 l 1.7462442,-1.301746 h 1.3017459 v 6.857978 h 1.7144945 v 0.867831 z"
         style="fill:#c50087"
         id="path7705" />
      <path
         d="m -1.8863771,42.439165 q -0.3915821,0 -0.634998,-0.232833 -0.2328326,-0.232832 -0.2328326,-0.603248 0,-0.391582 0.2328326,-0.634998 0.2434159,-0.243415 0.634998,-0.243415 0.391582,0 0.6244146,0.243415 0.2434159,0.243416 0.2434159,0.634998 0,0.370416 -0.2434159,0.603248 -0.2328326,0.232833 -0.6244146,0.232833 z"
         style="fill:#c50087"
         id="path7707" />
      <path
         d="M 3.299424,42.333332 6.0510819,35.475354 H 3.1089246 v 1.248829 H 2.1564277 v -2.11666 h 4.910651 v 0.888997 l -2.7304913,6.836812 z"
         style="fill:#c50087"
         id="path7709" />
      <path
         d="m 10.750051,42.439165 q -1.0689129,0 -1.6933276,-0.592665 -0.6244147,-0.603248 -0.6244147,-1.629828 h 0.952497 q 0,0.634998 0.3704155,1.005414 0.3704158,0.370415 1.0054138,0.370415 0.634998,0 1.005413,-0.370415 0.370416,-0.370416 0.370416,-1.005414 v -0.476248 q 0,-0.634998 -0.359833,-1.005414 -0.359832,-0.370415 -0.973663,-0.370415 H 8.6968912 v -3.757072 h 4.1169038 v 0.867831 H 9.5858884 l 0.021167,2.02141 h 1.248829 q 1.068914,0 1.650995,0.592665 0.582082,0.582081 0.582082,1.650995 v 0.476248 q 0,1.02658 -0.634998,1.629828 -0.624415,0.592665 -1.703912,0.592665 z"
         style="fill:#c50087"
         id="path7711" />
      <path
         d="m 17.057682,37.994179 q -0.349249,0 -0.571498,-0.222249 -0.222249,-0.222249 -0.222249,-0.571498 0,-0.338666 0.222249,-0.560915 0.232833,-0.232833 0.571498,-0.232833 h 0.211666 q 0.338666,0 0.560915,0.232833 0.232833,0.222249 0.232833,0.560915 0,0.349249 -0.22225,0.571498 -0.222249,0.222249 -0.571498,0.222249 z m -0.89958,6.032481 0.582081,-3.23849 h 1.142997 l -0.740831,3.23849 z"
         id="path7713" />
      <path
         d="m -23.47626,68.791581 v -5.820815 h 0.825498 v 0.772581 h 0.02117 q 0.05292,-0.391582 0.306916,-0.634998 0.264583,-0.243416 0.666748,-0.243416 0.380999,0 0.645581,0.22225 0.264583,0.222249 0.380999,0.603248 h 0.01058 q 0.07408,-0.380999 0.328083,-0.603248 0.264582,-0.22225 0.666747,-0.22225 0.560915,0 0.888998,0.423332 0.338665,0.412749 0.338665,1.079497 v 4.423819 h -0.888997 v -4.434402 q 0,-0.349249 -0.169333,-0.550332 -0.169333,-0.211666 -0.465665,-0.211666 -0.285749,0 -0.455082,0.201083 -0.169333,0.201082 -0.169333,0.550331 v 4.444986 h -0.783164 v -4.434402 q 0,-0.349249 -0.169333,-0.550332 -0.169332,-0.211666 -0.455081,-0.211666 -0.296333,0 -0.465666,0.201083 -0.169332,0.201082 -0.169332,0.550331 v 4.444986 z"
         style="fill:#392eff"
         id="path7715" />
      <path
         d="m -14.586304,68.897414 q -1.02658,0 -1.661578,-0.613831 -0.624414,-0.624415 -0.624414,-1.714495 v -1.375829 q 0,-1.09008 0.624414,-1.703911 0.634998,-0.624415 1.661578,-0.624415 0.687915,0 1.195913,0.275166 0.518582,0.275166 0.804331,0.772581 0.285749,0.497415 0.285749,1.174746 v 1.037164 h -3.640655 v 0.550331 q 0,0.645582 0.370416,1.02658 0.370415,0.370416 0.984246,0.370416 0.529165,0 0.867831,-0.201083 0.349249,-0.211666 0.423332,-0.560915 h 0.952497 q -0.09525,0.730248 -0.709081,1.164163 -0.613831,0.423332 -1.534579,0.423332 z m -1.354662,-3.513655 h 2.709325 v -0.296333 q 0,-0.687914 -0.359832,-1.05833 -0.349249,-0.380998 -0.994831,-0.380998 -0.645581,0 -1.005413,0.380998 -0.349249,0.370416 -0.349249,1.05833 z"
         style="fill:#392eff"
         id="path7717" />
      <path
         d="m -7.6542598,68.791581 q -0.7196644,0 -1.1535797,-0.412749 -0.4339153,-0.423332 -0.4339153,-1.121829 v -3.418406 h -1.6721612 v -0.867831 h 1.6721612 v -1.640411 h 0.952497 v 1.640411 h 2.3812424 v 0.867831 h -2.3812424 v 3.418406 q 0,0.296332 0.1693328,0.486831 0.1799161,0.179917 0.4656652,0.179917 h 1.6933279 v 0.86783 z"
         style="fill:#392eff"
         id="path7719" />
      <path
         d="m -1.8863771,68.897414 q -1.0265801,0 -1.6615781,-0.613831 -0.6244147,-0.624415 -0.6244147,-1.714495 v -1.375829 q 0,-1.09008 0.6244147,-1.703911 0.634998,-0.624415 1.6615781,-0.624415 0.6879144,0 1.19591282,0.275166 0.51858168,0.275166 0.80433077,0.772581 0.28574909,0.497415 0.28574909,1.174746 V 66.12459 H -3.2410395 v 0.550331 q 0,0.645582 0.3704155,1.02658 0.3704155,0.370416 0.9842469,0.370416 0.5291649,0 0.8678305,-0.201083 0.34924891,-0.211666 0.42333201,-0.560915 h 0.95249697 q -0.0952497,0.730248 -0.70908108,1.164163 -0.61383138,0.423332 -1.5345784,0.423332 z m -1.3546624,-3.513655 h 2.70932471 v -0.296333 q 0,-0.687914 -0.35983219,-1.05833 -0.34924892,-0.380998 -0.99483012,-0.380998 -0.6455813,0 -1.0054135,0.380998 -0.3492489,0.370416 -0.3492489,1.05833 z"
         style="fill:#392eff"
         id="path7721" />
      <path
         d="m 2.4739267,68.791581 v -5.820815 h 0.9524969 v 1.111247 h 0.021167 q 0.074083,-0.560915 0.4762485,-0.888997 0.4021654,-0.328083 1.0794966,-0.328083 0.9101637,0 1.3969955,0.550332 0.4974151,0.539748 0.4974151,1.545162 v 0.497415 h -0.952497 v -0.497415 q 0,-1.269996 -1.238246,-1.269996 -0.6244147,0 -0.952497,0.359832 -0.3280823,0.359832 -0.3280823,1.037163 v 3.704155 z"
         style="fill:#392eff"
         id="path7723" />
      <path
         d="m 10.580719,68.876248 q -0.973664,0 -1.5134123,-0.433916 -0.529165,-0.444498 -0.529165,-1.248829 h 0.952497 q 0,0.402165 0.2857491,0.634998 0.2857492,0.222249 0.8043312,0.222249 h 0.465665 q 0.529165,0 0.814914,-0.232832 0.296332,-0.232833 0.296332,-0.656165 0,-0.751414 -0.687914,-0.846664 L 9.8610542,66.082256 Q 9.2683894,65.99759 8.9403071,65.595425 8.6122248,65.182676 8.6122248,64.515928 q 0,-0.761997 0.5185817,-1.195913 Q 9.6599715,62.8861 10.580719,62.8861 h 0.465665 q 0.846664,0 1.375829,0.423332 0.539748,0.412749 0.582081,1.09008 h -0.96308 q -0.02117,-0.306916 -0.296332,-0.507999 -0.264583,-0.201082 -0.698498,-0.201082 h -0.465665 q -0.486832,0 -0.761998,0.222249 -0.2751658,0.222249 -0.2751658,0.603248 0,0.613831 0.5609148,0.698498 l 1.502829,0.211666 q 1.481662,0.211666 1.481662,1.735661 0,0.814914 -0.539749,1.269996 -0.529165,0.444499 -1.502828,0.444499 z"
         style="fill:#392eff"
         id="path7725" />
      <path
         d="M 19.121426,70.061577 Q 17.608014,69.722912 16.771933,68.643415 15.946436,67.563918 15.946436,65.93409 v -1.904994 q 0,-1.629828 0.825497,-2.709324 0.836081,-1.079497 2.349493,-1.418163 v 0.920748 q -0.677331,0.158749 -1.18533,0.603248 -0.497415,0.444498 -0.772581,1.111246 -0.264582,0.656165 -0.264582,1.492245 v 1.904994 q 0,0.825498 0.264582,1.492246 0.275166,0.666747 0.772581,1.111246 0.507999,0.444499 1.18533,0.603248 z"
         id="path7727" />
      <path
         d="m 20.867655,68.791581 2.063743,-2.995074 -1.936744,-2.825741 h 1.12183 l 1.15358,1.799161 q 0.07408,0.116417 0.137582,0.253999 0.07408,0.137583 0.116417,0.22225 0.03175,-0.08467 0.09525,-0.22225 0.07408,-0.137582 0.148167,-0.253999 l 1.153579,-1.799161 h 1.12183 l -1.936744,2.836325 2.05316,2.98449 h -1.121829 l -1.24883,-1.904994 q -0.07408,-0.116416 -0.148166,-0.264582 -0.0635,-0.15875 -0.116416,-0.253999 -0.04233,0.09525 -0.127,0.253999 -0.07408,0.148166 -0.158749,0.264582 l -1.24883,1.904994 z"
         id="path7729" />
      <path
         d="M 27.905529,70.061577 V 69.14083 q 0.687915,-0.158749 1.18533,-0.603248 0.497415,-0.444499 0.761997,-1.111246 0.275166,-0.666748 0.275166,-1.492246 v -1.904994 q 0,-0.83608 -0.275166,-1.492245 -0.264582,-0.666748 -0.761997,-1.111246 -0.497415,-0.444499 -1.18533,-0.603248 v -0.920748 q 1.513412,0.338666 2.33891,1.418163 0.83608,1.079496 0.83608,2.709324 v 1.904994 q 0,1.629828 -0.83608,2.709325 -0.825498,1.079497 -2.33891,1.418162 z"
         id="path7731" />
    </g>
    <g
       aria-label="

 .in(meters)    1.75"
       id="text54895"
       style="font-size:10.7499px;line-height:1.25;font-family:'JetBrains Mono';-inkscape-font-specification:'JetBrains Mono';stroke-width:0.268747">
      <path
         d="m 169.53645,69.162367 q -0.39775,0 -0.64499,-0.236498 -0.2365,-0.236497 -0.2365,-0.612744 0,-0.397746 0.2365,-0.644994 0.24724,-0.247248 0.64499,-0.247248 0.39775,0 0.63424,0.247248 0.24725,0.247248 0.24725,0.644994 0,0.376247 -0.24725,0.612744 -0.23649,0.236498 -0.63424,0.236498 z"
         id="path7668" />
      <path
         d="m 173.67515,69.054868 v -0.881492 h 2.09623 v -4.149461 h -1.88124 v -0.881492 h 2.84873 v 5.030953 h 1.98873 v 0.881492 z m 2.47247,-6.976685 q -0.35474,0 -0.55899,-0.182748 -0.20425,-0.182748 -0.20425,-0.494495 0,-0.322497 0.20425,-0.505246 0.20425,-0.193498 0.55899,-0.193498 0.35475,0 0.559,0.193498 0.20425,0.182749 0.20425,0.505246 0,0.311747 -0.20425,0.494495 -0.20425,0.182748 -0.559,0.182748 z"
         id="path7670" />
      <path
         d="m 180.20032,69.054868 v -5.912445 h 0.96749 v 1.12874 h 0.0108 q 0.0752,-0.591245 0.48374,-0.913742 0.4085,-0.322497 1.08574,-0.322497 0.89225,0 1.41899,0.548245 0.52675,0.548245 0.52675,1.494236 v 3.977463 h -0.9675 v -3.805464 q 0,-0.677244 -0.34399,-1.031991 -0.33325,-0.365496 -0.91374,-0.365496 -0.602,0 -0.95674,0.376246 -0.344,0.376247 -0.344,1.06424 v 3.762465 z"
         id="path7672" />
      <path
         d="m 190.87495,70.344856 q -1.53723,-0.343997 -2.38648,-1.440486 -0.83849,-1.09649 -0.83849,-2.751975 v -1.934982 q 0,-1.655484 0.83849,-2.751974 0.84925,-1.09649 2.38648,-1.440487 v 0.935242 q -0.68799,0.161248 -1.20399,0.612744 -0.50524,0.451496 -0.78474,1.128739 -0.26875,0.666494 -0.26875,1.515736 v 1.934982 q 0,0.838492 0.26875,1.515736 0.2795,0.677244 0.78474,1.12874 0.516,0.451495 1.20399,0.612744 z"
         id="path7674" />
      <path
         d="m 192.75617,69.054868 v -5.912445 h 0.83849 v 0.784743 h 0.0215 q 0.0537,-0.397746 0.31175,-0.644994 0.26875,-0.247248 0.67724,-0.247248 0.387,0 0.65575,0.225748 0.26874,0.225748 0.38699,0.612744 h 0.0108 q 0.0753,-0.386996 0.33325,-0.612744 0.26875,-0.225748 0.67724,-0.225748 0.56975,0 0.90299,0.429996 0.344,0.419246 0.344,1.09649 v 4.493458 h -0.90299 V 64.55066 q 0,-0.354747 -0.172,-0.558995 -0.172,-0.214998 -0.47299,-0.214998 -0.29025,0 -0.46225,0.204248 -0.172,0.204249 -0.172,0.558995 v 4.514958 H 194.9384 V 64.55066 q 0,-0.354747 -0.172,-0.558995 -0.172,-0.214998 -0.46224,-0.214998 -0.301,0 -0.473,0.204248 -0.172,0.204249 -0.172,0.558995 v 4.514958 z"
         style="fill:#392eff"
         id="path7676" />
      <path
         d="m 201.78607,69.162367 q -1.04274,0 -1.68774,-0.623494 -0.63424,-0.634244 -0.63424,-1.741484 v -1.397487 q 0,-1.107239 0.63424,-1.730734 0.645,-0.634244 1.68774,-0.634244 0.69874,0 1.21473,0.279498 0.52675,0.279497 0.817,0.784742 0.29024,0.505246 0.29024,1.193239 v 1.05349 h -3.69796 v 0.558995 q 0,0.655744 0.37625,1.042741 0.37624,0.376246 0.99974,0.376246 0.53749,0 0.88149,-0.204248 0.35474,-0.214998 0.42999,-0.569745 h 0.96749 q -0.0967,0.741743 -0.72024,1.182489 -0.62349,0.429996 -1.55873,0.429996 z M 200.41008,65.5934 h 2.75197 v -0.300997 q 0,-0.698743 -0.36549,-1.07499 -0.35475,-0.386996 -1.01049,-0.386996 -0.65575,0 -1.02124,0.386996 -0.35475,0.376247 -0.35475,1.07499 z"
         style="fill:#392eff"
         id="path7678" />
      <path
         d="m 208.82724,69.054868 q -0.731,0 -1.17174,-0.419246 -0.44075,-0.429996 -0.44075,-1.139489 v -3.472218 h -1.69848 v -0.881492 h 1.69848 v -1.666234 h 0.96749 v 1.666234 h 2.41873 v 0.881492 h -2.41873 v 3.472218 q 0,0.300997 0.172,0.494495 0.18275,0.182748 0.473,0.182748 h 1.71998 v 0.881492 z"
         style="fill:#392eff"
         id="path7680" />
      <path
         d="m 214.68592,69.162367 q -1.04275,0 -1.68774,-0.623494 -0.63424,-0.634244 -0.63424,-1.741484 v -1.397487 q 0,-1.107239 0.63424,-1.730734 0.64499,-0.634244 1.68774,-0.634244 0.69874,0 1.21473,0.279498 0.52675,0.279497 0.817,0.784742 0.29024,0.505246 0.29024,1.193239 v 1.05349 h -3.69796 v 0.558995 q 0,0.655744 0.37624,1.042741 0.37625,0.376246 0.99975,0.376246 0.53749,0 0.88149,-0.204248 0.35474,-0.214998 0.42999,-0.569745 h 0.96749 q -0.0967,0.741743 -0.72024,1.182489 -0.62349,0.429996 -1.55873,0.429996 z M 213.30993,65.5934 h 2.75197 v -0.300997 q 0,-0.698743 -0.36549,-1.07499 -0.35475,-0.386996 -1.01049,-0.386996 -0.65575,0 -1.02125,0.386996 -0.35474,0.376247 -0.35474,1.07499 z"
         style="fill:#392eff"
         id="path7682" />
      <path
         d="m 219.11486,69.054868 v -5.912445 h 0.96749 v 1.12874 h 0.0215 q 0.0753,-0.569745 0.48374,-0.902992 0.4085,-0.333247 1.09649,-0.333247 0.9245,0 1.41899,0.558995 0.50525,0.548245 0.50525,1.569485 v 0.505246 h -0.96749 v -0.505246 q 0,-1.289988 -1.25774,-1.289988 -0.63425,0 -0.96749,0.365497 -0.33325,0.365497 -0.33325,1.05349 v 3.762465 z"
         style="fill:#392eff"
         id="path7684" />
      <path
         d="m 227.34927,69.140867 q -0.98899,0 -1.53724,-0.440745 -0.53749,-0.451496 -0.53749,-1.268489 h 0.96749 q 0,0.408497 0.29024,0.644994 0.29025,0.225748 0.817,0.225748 h 0.47299 q 0.5375,0 0.82774,-0.236498 0.301,-0.236497 0.301,-0.666493 0,-0.763243 -0.69874,-0.859992 l -1.63399,-0.236498 q -0.60199,-0.086 -0.93524,-0.494496 -0.33325,-0.419246 -0.33325,-1.096489 0,-0.773993 0.52675,-1.214739 0.53749,-0.440746 1.47274,-0.440746 h 0.47299 q 0.85999,0 1.39749,0.429996 0.54824,0.419246 0.59124,1.10724 h -0.97824 q -0.0215,-0.311747 -0.30099,-0.515995 -0.26875,-0.204249 -0.7095,-0.204249 h -0.47299 q -0.4945,0 -0.774,0.225748 -0.27949,0.225748 -0.27949,0.612745 0,0.623494 0.56974,0.709493 l 1.52649,0.214998 q 1.50498,0.214998 1.50498,1.762984 0,0.827742 -0.54824,1.289988 -0.5375,0.451495 -1.52649,0.451495 z"
         style="fill:#392eff"
         id="path7686" />
      <path
         d="m 232.04695,70.344856 v -0.935241 q 0.69875,-0.161249 1.20399,-0.612744 0.50525,-0.451496 0.77399,-1.12874 0.2795,-0.677244 0.2795,-1.515736 v -1.934982 q 0,-0.849242 -0.2795,-1.515736 -0.26874,-0.677243 -0.77399,-1.128739 -0.50524,-0.451496 -1.20399,-0.612744 v -0.935242 q 1.53724,0.343997 2.37573,1.440487 0.84924,1.09649 0.84924,2.751974 v 1.934982 q 0,1.655485 -0.84924,2.751975 -0.83849,1.096489 -2.37573,1.440486 z"
         id="path7688" />
      <path
         d="m 264.02782,69.054868 v -0.881492 h 2.12848 v -6.127442 l -2.12848,1.590985 v -1.10724 l 1.77374,-1.322238 h 1.32224 v 6.965935 h 1.74148 v 0.881492 z"
         style="fill:#c50087"
         id="path7690" />
      <path
         d="m 272.73522,69.162367 q -0.39774,0 -0.64499,-0.236498 -0.2365,-0.236497 -0.2365,-0.612744 0,-0.397746 0.2365,-0.644994 0.24725,-0.247248 0.64499,-0.247248 0.39775,0 0.63425,0.247248 0.24725,0.247248 0.24725,0.644994 0,0.376247 -0.24725,0.612744 -0.2365,0.236498 -0.63425,0.236498 z"
         style="fill:#c50087"
         id="path7692" />
      <path
         d="m 278.00266,69.054868 2.79498,-6.965935 h -2.98848 v 1.268488 h -0.96749 v -2.14998 h 4.98796 v 0.902992 l -2.77348,6.944435 z"
         style="fill:#c50087"
         id="path7694" />
      <path
         d="m 285.57057,69.162367 q -1.08574,0 -1.71998,-0.601994 -0.63424,-0.612744 -0.63424,-1.655485 h 0.96749 q 0,0.644994 0.37624,1.021241 0.37625,0.376246 1.02124,0.376246 0.645,0 1.02124,-0.376246 0.37625,-0.376247 0.37625,-1.021241 v -0.483745 q 0,-0.644994 -0.3655,-1.021241 -0.36549,-0.376246 -0.98899,-0.376246 h -2.13923 v -3.816215 h 4.18171 v 0.881492 h -3.27872 l 0.0215,2.053231 h 1.26849 q 1.08574,0 1.67699,0.601994 0.59124,0.591245 0.59124,1.676985 v 0.483745 q 0,1.042741 -0.64499,1.655485 -0.63425,0.601994 -1.73074,0.601994 z"
         style="fill:#c50087"
         id="path7696" />
    </g>
    <g
       aria-label="

 .as(feet)"
       id="text95593"
       style="font-size:10.7499px;line-height:1.25;font-family:'JetBrains Mono';-inkscape-font-specification:'JetBrains Mono';stroke-width:0.268747">
      <path
         d="m 62.990518,199.20936 q -0.397747,0 -0.644994,-0.2365 -0.236498,-0.2365 -0.236498,-0.61274 0,-0.39775 0.236498,-0.645 0.247247,-0.24724 0.644994,-0.24724 0.397746,0 0.634244,0.24724 0.247248,0.24725 0.247248,0.645 0,0.37624 -0.247248,0.61274 -0.236498,0.2365 -0.634244,0.2365 z"
         id="path7649" />
      <path
         d="m 68.924446,199.20936 q -0.913741,0 -1.451236,-0.50524 -0.537495,-0.516 -0.537495,-1.34374 0,-0.54825 0.247247,-0.95674 0.247248,-0.4085 0.687994,-0.63425 0.440746,-0.2365 1.01049,-0.2365 h 1.827483 v -0.46224 q 0,-1.15024 -1.257738,-1.15024 -0.558995,0 -0.902991,0.20425 -0.343997,0.20425 -0.365497,0.56974 h -0.967491 q 0.05375,-0.69874 0.644994,-1.15024 0.601994,-0.46224 1.590985,-0.46224 1.07499,0 1.644735,0.51599 0.580494,0.516 0.580494,1.44049 v 4.06346 h -0.956741 v -1.07499 h -0.0215 q -0.086,0.54825 -0.548245,0.87074 -0.462246,0.31175 -1.225489,0.31175 z m 0.236498,-0.81699 q 0.709493,0 1.128739,-0.344 0.419246,-0.344 0.419246,-0.93524 v -0.82774 h -1.719984 q -0.472995,0 -0.773992,0.29025 -0.290248,0.27949 -0.290248,0.75249 0,0.49449 0.322497,0.78474 0.333247,0.2795 0.913742,0.2795 z"
         id="path7651" />
      <path
         d="m 75.653866,199.18786 q -0.988991,0 -1.537236,-0.44075 -0.537495,-0.45149 -0.537495,-1.26848 h 0.967491 q 0,0.40849 0.290248,0.64499 0.290247,0.22575 0.816992,0.22575 h 0.472996 q 0.537495,0 0.827742,-0.2365 0.300997,-0.2365 0.300997,-0.66649 0,-0.76325 -0.698743,-0.86 l -1.633985,-0.23649 q -0.601995,-0.086 -0.935241,-0.4945 -0.333247,-0.41924 -0.333247,-1.09649 0,-0.77399 0.526745,-1.21474 0.537495,-0.44074 1.472736,-0.44074 h 0.472996 q 0.859992,0 1.397487,0.42999 0.548244,0.41925 0.591244,1.10724 h -0.978241 q -0.0215,-0.31174 -0.300997,-0.51599 -0.268748,-0.20425 -0.709493,-0.20425 h -0.472996 q -0.494495,0 -0.773993,0.22575 -0.279497,0.22575 -0.279497,0.61274 0,0.6235 0.569744,0.7095 l 1.526486,0.21499 q 1.504986,0.215 1.504986,1.76299 0,0.82774 -0.548245,1.28998 -0.537495,0.4515 -1.526485,0.4515 z"
         id="path7653" />
      <path
         d="m 84.32902,200.39185 q -1.537236,-0.344 -2.386478,-1.44049 -0.838492,-1.09649 -0.838492,-2.75197 v -1.93498 q 0,-1.65549 0.838492,-2.75198 0.849242,-1.09649 2.386478,-1.44048 v 0.93524 q -0.687994,0.16125 -1.203989,0.61274 -0.505245,0.4515 -0.784743,1.12874 -0.268747,0.66649 -0.268747,1.51574 v 1.93498 q 0,0.83849 0.268747,1.51573 0.279498,0.67725 0.784743,1.12874 0.515995,0.4515 1.203989,0.61275 z"
         id="path7655" />
      <path
         d="m 87.876471,199.10186 v -4.22471 h -1.719984 v -0.88149 h 1.719984 v -1.23624 q 0,-0.69874 0.440746,-1.09649 0.440746,-0.4085 1.214739,-0.4085 h 1.730734 v 0.8815 h -1.730734 q -0.687994,0 -0.687994,0.62349 v 1.23624 h 2.418728 v 0.88149 h -2.418728 v 4.22471 z"
         style="fill:#790099"
         id="path7657" />
      <path
         d="m 95.240133,199.20936 q -1.04274,0 -1.687734,-0.62349 -0.634244,-0.63425 -0.634244,-1.74149 v -1.39748 q 0,-1.10724 0.634244,-1.73074 0.644994,-0.63424 1.687734,-0.63424 0.698744,0 1.214739,0.27949 0.526745,0.2795 0.816992,0.78475 0.290248,0.50524 0.290248,1.19324 v 1.05349 h -3.697966 v 0.55899 q 0,0.65575 0.376247,1.04274 0.376246,0.37625 0.99974,0.37625 0.537495,0 0.881492,-0.20425 0.354747,-0.215 0.429996,-0.56974 h 0.967491 q -0.09675,0.74174 -0.720243,1.18248 -0.623494,0.43 -1.558736,0.43 z m -1.375987,-3.56897 h 2.751975 v -0.30099 q 0,-0.69875 -0.365497,-1.07499 -0.354747,-0.387 -1.010491,-0.387 -0.655744,0 -1.02124,0.387 -0.354747,0.37624 -0.354747,1.07499 z"
         style="fill:#790099"
         id="path7659" />
      <path
         d="m 101.69006,199.20936 q -1.04274,0 -1.68774,-0.62349 -0.634241,-0.63425 -0.634241,-1.74149 v -1.39748 q 0,-1.10724 0.634241,-1.73074 0.645,-0.63424 1.68774,-0.63424 0.69874,0 1.21474,0.27949 0.52674,0.2795 0.81699,0.78475 0.29025,0.50524 0.29025,1.19324 v 1.05349 h -3.69797 v 0.55899 q 0,0.65575 0.37625,1.04274 0.37624,0.37625 0.99974,0.37625 0.53749,0 0.88149,-0.20425 0.35475,-0.215 0.43,-0.56974 h 0.96749 q -0.0968,0.74174 -0.72025,1.18248 -0.62349,0.43 -1.55873,0.43 z m -1.37599,-3.56897 h 2.75198 v -0.30099 q 0,-0.69875 -0.3655,-1.07499 -0.35475,-0.387 -1.01049,-0.387 -0.65575,0 -1.02124,0.387 -0.35475,0.37624 -0.35475,1.07499 z"
         style="fill:#790099"
         id="path7661" />
      <path
         d="m 108.73123,199.10186 q -0.731,0 -1.17174,-0.41924 -0.44075,-0.43 -0.44075,-1.13949 v -3.47222 h -1.69848 v -0.88149 h 1.69848 v -1.66624 h 0.96749 v 1.66624 h 2.41873 v 0.88149 h -2.41873 v 3.47222 q 0,0.30099 0.172,0.49449 0.18275,0.18275 0.473,0.18275 h 1.71998 v 0.88149 z"
         style="fill:#790099"
         id="path7663" />
      <path
         d="m 112.60118,200.39185 v -0.93524 q 0.69874,-0.16125 1.20398,-0.61275 0.50525,-0.45149 0.774,-1.12874 0.27949,-0.67724 0.27949,-1.51573 v -1.93498 q 0,-0.84925 -0.27949,-1.51574 -0.26875,-0.67724 -0.774,-1.12874 -0.50524,-0.45149 -1.20398,-0.61274 v -0.93524 q 1.53723,0.34399 2.37572,1.44048 0.84925,1.09649 0.84925,2.75198 v 1.93498 q 0,1.65548 -0.84925,2.75197 -0.83849,1.09649 -2.37572,1.44049 z"
         id="path7665" />
    </g>
    <g
       aria-label="

 .in(feet)    5.74147
     "
       id="text98948"
       style="font-size:10.7499px;line-height:1.25;font-family:'JetBrains Mono';-inkscape-font-specification:'JetBrains Mono';stroke-width:0.268747">
      <path
         d="m 161.37857,159.56385 q -0.39775,0 -0.645,-0.2365 -0.23649,-0.23649 -0.23649,-0.61274 0,-0.39775 0.23649,-0.64499 0.24725,-0.24725 0.645,-0.24725 0.39774,0 0.63424,0.24725 0.24725,0.24724 0.24725,0.64499 0,0.37625 -0.24725,0.61274 -0.2365,0.2365 -0.63424,0.2365 z"
         id="path7616" />
      <path
         d="m 165.51726,159.45635 v -0.88149 h 2.09623 v -4.14946 h -1.88123 v -0.88149 h 2.84872 v 5.03095 h 1.98874 v 0.88149 z m 2.47248,-6.97668 q -0.35475,0 -0.55899,-0.18275 -0.20425,-0.18275 -0.20425,-0.4945 0,-0.32249 0.20425,-0.50524 0.20424,-0.1935 0.55899,-0.1935 0.35475,0 0.55899,0.1935 0.20425,0.18275 0.20425,0.50524 0,0.31175 -0.20425,0.4945 -0.20424,0.18275 -0.55899,0.18275 z"
         id="path7618" />
      <path
         d="m 172.04243,159.45635 v -5.91244 h 0.9675 v 1.12874 h 0.0108 q 0.0752,-0.59125 0.48374,-0.91374 0.4085,-0.3225 1.08574,-0.3225 0.89224,0 1.41899,0.54824 0.52674,0.54825 0.52674,1.49424 v 3.97746 h -0.96749 v -3.80546 q 0,-0.67724 -0.34399,-1.03199 -0.33325,-0.3655 -0.91375,-0.3655 -0.60199,0 -0.95674,0.37625 -0.34399,0.37625 -0.34399,1.06424 v 3.76246 z"
         id="path7620" />
      <path
         d="m 182.71707,160.74634 q -1.53724,-0.344 -2.38648,-1.44048 -0.83849,-1.09649 -0.83849,-2.75198 v -1.93498 q 0,-1.65549 0.83849,-2.75198 0.84924,-1.09649 2.38648,-1.44048 v 0.93524 q -0.68799,0.16125 -1.20399,0.61274 -0.50524,0.4515 -0.78474,1.12874 -0.26875,0.6665 -0.26875,1.51574 v 1.93498 q 0,0.83849 0.26875,1.51574 0.2795,0.67724 0.78474,1.12874 0.516,0.45149 1.20399,0.61274 z"
         id="path7622" />
      <path
         d="m 186.26452,159.45635 v -4.22471 h -1.71998 v -0.88149 h 1.71998 v -1.23624 q 0,-0.69874 0.44075,-1.09649 0.44074,-0.40849 1.21474,-0.40849 h 1.73073 v 0.88149 h -1.73073 q -0.688,0 -0.688,0.62349 v 1.23624 h 2.41873 v 0.88149 h -2.41873 v 4.22471 z"
         style="fill:#790099"
         id="path7624" />
      <path
         d="m 193.62818,159.56385 q -1.04274,0 -1.68773,-0.62349 -0.63424,-0.63425 -0.63424,-1.74149 v -1.39748 q 0,-1.10724 0.63424,-1.73074 0.64499,-0.63424 1.68773,-0.63424 0.69875,0 1.21474,0.2795 0.52675,0.27949 0.81699,0.78474 0.29025,0.50525 0.29025,1.19324 v 1.05349 h -3.69796 v 0.55899 q 0,0.65575 0.37624,1.04274 0.37625,0.37625 0.99974,0.37625 0.5375,0 0.8815,-0.20425 0.35474,-0.215 0.42999,-0.56974 h 0.96749 q -0.0968,0.74174 -0.72024,1.18249 -0.6235,0.42999 -1.55874,0.42999 z m -1.37598,-3.56896 h 2.75197 v -0.301 q 0,-0.69874 -0.3655,-1.07499 -0.35474,-0.387 -1.01049,-0.387 -0.65574,0 -1.02124,0.387 -0.35474,0.37625 -0.35474,1.07499 z"
         style="fill:#790099"
         id="path7626" />
      <path
         d="m 200.07811,159.56385 q -1.04274,0 -1.68774,-0.62349 -0.63424,-0.63425 -0.63424,-1.74149 v -1.39748 q 0,-1.10724 0.63424,-1.73074 0.645,-0.63424 1.68774,-0.63424 0.69874,0 1.21474,0.2795 0.52674,0.27949 0.81699,0.78474 0.29025,0.50525 0.29025,1.19324 v 1.05349 h -3.69797 v 0.55899 q 0,0.65575 0.37625,1.04274 0.37624,0.37625 0.99974,0.37625 0.53749,0 0.88149,-0.20425 0.35475,-0.215 0.43,-0.56974 h 0.96749 q -0.0967,0.74174 -0.72025,1.18249 -0.62349,0.42999 -1.55873,0.42999 z m -1.37599,-3.56896 h 2.75198 v -0.301 q 0,-0.69874 -0.3655,-1.07499 -0.35475,-0.387 -1.01049,-0.387 -0.65575,0 -1.02124,0.387 -0.35475,0.37625 -0.35475,1.07499 z"
         style="fill:#790099"
         id="path7628" />
      <path
         d="m 207.11928,159.45635 q -0.731,0 -1.17174,-0.41924 -0.44075,-0.43 -0.44075,-1.13949 v -3.47222 h -1.69848 v -0.88149 h 1.69848 v -1.66624 h 0.96749 v 1.66624 h 2.41873 v 0.88149 h -2.41873 v 3.47222 q 0,0.301 0.172,0.49449 0.18275,0.18275 0.473,0.18275 h 1.71998 v 0.88149 z"
         style="fill:#790099"
         id="path7630" />
      <path
         d="m 210.98923,160.74634 v -0.93524 q 0.69874,-0.16125 1.20398,-0.61274 0.50525,-0.4515 0.774,-1.12874 0.27949,-0.67725 0.27949,-1.51574 v -1.93498 q 0,-0.84924 -0.27949,-1.51574 -0.26875,-0.67724 -0.774,-1.12874 -0.50524,-0.45149 -1.20398,-0.61274 v -0.93524 q 1.53723,0.34399 2.37572,1.44048 0.84925,1.09649 0.84925,2.75198 v 1.93498 q 0,1.65549 -0.84925,2.75198 -0.83849,1.09648 -2.37572,1.44048 z"
         id="path7632" />
      <path
         d="m 245.16307,159.56385 q -1.08574,0 -1.71998,-0.60199 -0.63425,-0.61275 -0.63425,-1.65549 h 0.9675 q 0,0.645 0.37624,1.02124 0.37625,0.37625 1.02124,0.37625 0.645,0 1.02124,-0.37625 0.37625,-0.37624 0.37625,-1.02124 v -0.48374 q 0,-0.645 -0.3655,-1.02124 -0.36549,-0.37625 -0.98899,-0.37625 h -2.13923 v -3.81621 h 4.18171 v 0.88149 h -3.27872 l 0.0215,2.05323 h 1.26849 q 1.08574,0 1.67699,0.60199 0.59124,0.59125 0.59124,1.67699 v 0.48374 q 0,1.04274 -0.64499,1.65549 -0.63425,0.60199 -1.73074,0.60199 z"
         style="fill:#c50087"
         id="path7634" />
      <path
         d="m 251.6775,159.56385 q -0.39775,0 -0.64499,-0.2365 -0.2365,-0.23649 -0.2365,-0.61274 0,-0.39775 0.2365,-0.64499 0.24724,-0.24725 0.64499,-0.24725 0.39775,0 0.63424,0.24725 0.24725,0.24724 0.24725,0.64499 0,0.37625 -0.24725,0.61274 -0.23649,0.2365 -0.63424,0.2365 z"
         style="fill:#c50087"
         id="path7636" />
      <path
         d="m 256.94493,159.45635 2.79498,-6.96593 h -2.98848 v 1.26849 h -0.96749 v -2.14998 h 4.98796 v 0.90299 l -2.77348,6.94443 z"
         style="fill:#c50087"
         id="path7638" />
      <path
         d="m 265.65233,159.45635 v -1.71998 h -3.54747 v -1.51574 l 2.85948,-4.6117 h 1.09649 l -2.98847,4.8267 v 0.41925 h 2.57997 v -1.91348 h 0.96749 v 4.51495 z"
         style="fill:#c50087"
         id="path7640" />
      <path
         d="m 268.76979,159.45635 v -0.88149 h 2.12848 v -6.12744 l -2.12848,1.59098 v -1.10724 l 1.77373,-1.32223 h 1.32224 v 6.96593 h 1.74149 v 0.88149 z"
         style="fill:#c50087"
         id="path7642" />
      <path
         d="m 278.55218,159.45635 v -1.71998 h -3.54747 v -1.51574 l 2.85948,-4.6117 h 1.09649 l -2.98848,4.8267 v 0.41925 h 2.57998 v -1.91348 h 0.96749 v 4.51495 z"
         style="fill:#c50087"
         id="path7644" />
      <path
         d="m 282.74463,159.45635 2.79497,-6.96593 h -2.98847 v 1.26849 h -0.96749 v -2.14998 h 4.98795 v 0.90299 l -2.77347,6.94443 z"
         style="fill:#c50087"
         id="path7646" />
    </g>
    <g
       aria-label="

in"
       id="text99247"
       style="font-size:10.7499px;line-height:1.25;font-family:'JetBrains Mono';-inkscape-font-specification:'JetBrains Mono';stroke-width:0.268747">
      <path
         d="m 98.127258,121.39906 v -0.88149 h 2.096232 v -4.14946 h -1.881234 v -0.88149 h 2.848724 v 5.03095 h 1.98873 v 0.88149 z m 2.472472,-6.97668 q -0.35474,0 -0.55899,-0.18275 -0.204248,-0.18275 -0.204248,-0.49449 0,-0.3225 0.204248,-0.50525 0.20425,-0.1935 0.55899,-0.1935 0.35475,0 0.559,0.1935 0.20425,0.18275 0.20425,0.50525 0,0.31174 -0.20425,0.49449 -0.20425,0.18275 -0.559,0.18275 z"
         id="path7611" />
      <path
         d="m 104.65243,121.39906 v -5.91244 h 0.96749 v 1.12874 h 0.0108 q 0.0753,-0.59125 0.48375,-0.91374 0.40849,-0.3225 1.08574,-0.3225 0.89224,0 1.41898,0.54825 0.52675,0.54824 0.52675,1.49423 v 3.97746 h -0.96749 v -3.80546 q 0,-0.67724 -0.344,-1.03199 -0.33325,-0.3655 -0.91374,-0.3655 -0.60199,0 -0.95674,0.37625 -0.344,0.37625 -0.344,1.06424 v 3.76246 z"
         id="path7613" />
    </g>
    <g
       aria-label="

as"
       id="text99735"
       style="font-size:10.7499px;line-height:1.25;font-family:'JetBrains Mono';-inkscape-font-specification:'JetBrains Mono';stroke-width:0.268747">
      <path
         d="m 73.655996,121.50656 q -0.913741,0 -1.451236,-0.50524 -0.537495,-0.516 -0.537495,-1.34374 0,-0.54824 0.247247,-0.95674 0.247248,-0.4085 0.687994,-0.63424 0.440746,-0.2365 1.010491,-0.2365 h 1.827483 v -0.46225 q 0,-1.15024 -1.257739,-1.15024 -0.558994,0 -0.902991,0.20425 -0.343997,0.20425 -0.365497,0.56975 h -0.967491 q 0.05375,-0.69875 0.644994,-1.15024 0.601995,-0.46225 1.590985,-0.46225 1.07499,0 1.644735,0.516 0.580495,0.51599 0.580495,1.44048 v 4.06346 H 75.45123 v -1.07499 h -0.0215 q -0.086,0.54825 -0.548245,0.87075 -0.462246,0.31174 -1.225489,0.31174 z m 0.236498,-0.81699 q 0.709493,0 1.12874,-0.344 0.419246,-0.34399 0.419246,-0.93524 v -0.82774 h -1.719984 q -0.472996,0 -0.773993,0.29025 -0.290247,0.2795 -0.290247,0.75249 0,0.4945 0.322497,0.78474 0.333246,0.2795 0.913741,0.2795 z"
         id="path7606" />
      <path
         d="m 80.385417,121.48506 q -0.988991,0 -1.537236,-0.44074 -0.537495,-0.4515 -0.537495,-1.26849 h 0.967491 q 0,0.4085 0.290248,0.64499 0.290247,0.22575 0.816992,0.22575 h 0.472996 q 0.537495,0 0.827742,-0.2365 0.300997,-0.23649 0.300997,-0.66649 0,-0.76324 -0.698743,-0.85999 l -1.633985,-0.2365 q -0.601994,-0.086 -0.935241,-0.4945 -0.333247,-0.41924 -0.333247,-1.09649 0,-0.77399 0.526745,-1.21473 0.537495,-0.44075 1.472736,-0.44075 h 0.472996 q 0.859992,0 1.397487,0.43 0.548245,0.41924 0.591244,1.10724 h -0.978241 q -0.0215,-0.31175 -0.300997,-0.516 -0.268747,-0.20425 -0.709493,-0.20425 h -0.472996 q -0.494495,0 -0.773993,0.22575 -0.279497,0.22575 -0.279497,0.61274 0,0.6235 0.569745,0.7095 l 1.526485,0.215 q 1.504986,0.21499 1.504986,1.76298 0,0.82774 -0.548244,1.28999 -0.537495,0.45149 -1.526486,0.45149 z"
         id="path7608" />
    </g>
    <path
       id="path193265"
       style="fill:none;stroke:#000000;stroke-width:0.529;stroke-linecap:butt;stroke-linejoin:miter;stroke-miterlimit:4;stroke-dasharray:none;stroke-opacity:1;marker-end:url(#Arrow1Mend)"
       d="m 116.41667,109.69739 v 30.53178 c 0.20523,1.44829 0.90861,2.47968 2.64583,2.64583 h 97.89583" />
    <path
       id="path194528"
       style="fill:none;stroke:#000000;stroke-width:0.529;stroke-linecap:butt;stroke-linejoin:miter;stroke-miterlimit:4;stroke-dasharray:none;stroke-opacity:1;marker-end:url(#Arrow1Mend)"
       d="m 64.822918,109.67935 v 72.50926" />
    <g
       id="g200742"
       transform="translate(0,-58.225342)">
      <path
         id="path44159"
         style="fill:#ffffbf;stroke:#000000;stroke-width:0.529167"
         d="M 141.87725,156.58229 A 51.159756,13.123317 0 0 1 90.717491,169.70561 51.159756,13.123317 0 0 1 39.557735,156.58229 51.159756,13.123317 0 0 1 90.717491,143.45897 51.159756,13.123317 0 0 1 141.87725,156.58229 Z" />
      <g
         aria-label="Meters to Feet"
         id="text50599"
         style="font-size:10.5833px;line-height:1.25;font-family:'JetBrains Mono';-inkscape-font-specification:'JetBrains Mono';text-align:center;text-anchor:middle;stroke-width:0.264583">
        <path
           d="m 46.002383,160.27214 v -7.72581 h 1.725078 l 0.867831,3.32316 0.878414,-3.32316 h 1.735661 v 7.72581 h -1.238246 v -3.24907 q 0,-0.66675 0.03175,-1.37583 0.04233,-0.71967 0.09525,-1.38641 0.05292,-0.67733 0.116416,-1.22767 l -1.090079,3.88407 h -1.09008 l -1.047747,-3.78882 q 0.09525,0.73025 0.169333,1.74625 0.08467,1.00541 0.08467,2.14841 v 3.24907 z"
           style="font-weight:bold;fill:#392eff"
           id="path7581" />
        <path
           d="m 54.966422,160.37797 q -0.740831,0 -1.291163,-0.28575 -0.550331,-0.28574 -0.857247,-0.80433 -0.296332,-0.52916 -0.296332,-1.23824 v -1.37583 q 0,-0.70908 0.296332,-1.22766 0.306916,-0.52917 0.857247,-0.81492 0.550332,-0.28575 1.291163,-0.28575 0.730248,0 1.269996,0.28575 0.550331,0.28575 0.846664,0.80433 0.306916,0.508 0.306916,1.19592 v 1.05833 h -3.598322 v 0.40216 q 0,0.59267 0.306915,0.89958 0.306916,0.29633 0.867831,0.29633 0.412749,0 0.698498,-0.13758 0.296332,-0.14817 0.349249,-0.42333 h 1.312329 q -0.137583,0.75141 -0.783164,1.20649 -0.645582,0.4445 -1.576912,0.4445 z m -1.174746,-3.74648 v 0.20108 l 2.328326,-0.0106 v -0.20108 q 0,-0.60325 -0.296333,-0.93133 -0.296332,-0.32808 -0.857247,-0.32808 -0.582082,0 -0.878414,0.33867 -0.296332,0.32808 -0.296332,0.93133 z"
           style="font-weight:bold;fill:#392eff"
           id="path7583" />
        <path
           d="m 61.887884,160.27214 q -0.814914,0 -1.301746,-0.46566 -0.476249,-0.47625 -0.476249,-1.28058 v -2.87866 h -1.608661 v -1.19591 h 1.608661 v -1.64042 h 1.333496 v 1.64042 h 2.317743 v 1.19591 h -2.317743 v 2.84691 q 0,0.254 0.137583,0.42333 0.148166,0.15875 0.402165,0.15875 h 1.725078 v 1.19591 z"
           style="font-weight:bold;fill:#392eff"
           id="path7585" />
        <path
           d="m 67.666349,160.37797 q -0.740831,0 -1.291163,-0.28575 -0.550331,-0.28574 -0.857247,-0.80433 -0.296332,-0.52916 -0.296332,-1.23824 v -1.37583 q 0,-0.70908 0.296332,-1.22766 0.306916,-0.52917 0.857247,-0.81492 0.550332,-0.28575 1.291163,-0.28575 0.730247,0 1.269996,0.28575 0.550331,0.28575 0.846664,0.80433 0.306915,0.508 0.306915,1.19592 v 1.05833 h -3.598321 v 0.40216 q 0,0.59267 0.306915,0.89958 0.306916,0.29633 0.867831,0.29633 0.412748,0 0.698498,-0.13758 0.296332,-0.14817 0.349248,-0.42333 h 1.31233 q -0.137583,0.75141 -0.783165,1.20649 -0.645581,0.4445 -1.576911,0.4445 z m -1.174746,-3.74648 v 0.20108 l 2.328325,-0.0106 v -0.20108 q 0,-0.60325 -0.296332,-0.93133 -0.296332,-0.32808 -0.857247,-0.32808 -0.582082,0 -0.878414,0.33867 -0.296332,0.32808 -0.296332,0.93133 z"
           style="font-weight:bold;fill:#392eff"
           id="path7587" />
        <path
           d="m 71.85732,160.27214 v -5.82081 h 1.291162 v 1.13241 q 0.105833,-0.5715 0.518582,-0.89958 0.423332,-0.33867 1.09008,-0.33867 0.888997,0 1.386412,0.5715 0.497415,0.5715 0.497415,1.59808 v 0.55033 h -1.322912 v -0.48683 q 0,-0.52917 -0.275166,-0.80433 -0.275166,-0.28575 -0.783164,-0.28575 -0.529165,0 -0.804331,0.3175 -0.275166,0.3175 -0.275166,0.89958 v 3.56657 z"
           style="font-weight:bold;fill:#392eff"
           id="path7589" />
        <path
           d="m 80.112278,160.36739 q -1.037164,0 -1.640412,-0.46566 -0.603248,-0.47625 -0.603248,-1.28058 h 1.301746 q 0,0.33866 0.243416,0.51858 0.253999,0.17991 0.698498,0.17991 h 0.465665 q 0.476249,0 0.730248,-0.17991 0.264582,-0.17992 0.264582,-0.51858 0,-0.3175 -0.179916,-0.46567 -0.179916,-0.15875 -0.550331,-0.21167 l -1.449913,-0.19049 q -0.698497,-0.0952 -1.079496,-0.53975 -0.370416,-0.4445 -0.370416,-1.15358 0,-0.8255 0.550332,-1.25942 0.550332,-0.44449 1.587495,-0.44449 h 0.486832 q 0.973663,0 1.566328,0.44449 0.592665,0.4445 0.613831,1.18533 H 81.43519 q -0.01058,-0.27516 -0.243416,-0.43391 -0.232832,-0.16933 -0.624414,-0.16933 h -0.486832 q -0.423332,0 -0.645581,0.17991 -0.22225,0.16933 -0.22225,0.46567 0,0.26458 0.15875,0.39158 0.169333,0.127 0.486832,0.15875 l 1.365245,0.1905 q 0.804331,0.0952 1.206496,0.5715 0.412749,0.46566 0.412749,1.25941 0,0.84666 -0.582081,1.31233 -0.571498,0.45508 -1.682745,0.45508 z"
           style="font-weight:bold;fill:#392eff"
           id="path7591" />
        <path
           d="m 93.637702,160.27214 q -0.814914,0 -1.301746,-0.46566 -0.476249,-0.47625 -0.476249,-1.28058 v -2.87866 h -1.608661 v -1.19591 h 1.608661 v -1.64042 h 1.333496 v 1.64042 h 2.317743 v 1.19591 h -2.317743 v 2.84691 q 0,0.254 0.137583,0.42333 0.148166,0.15875 0.402165,0.15875 h 1.725078 v 1.19591 z"
           id="path7593" />
        <path
           d="m 99.405584,160.36739 q -1.121829,0 -1.777994,-0.62441 -0.656165,-0.635 -0.656165,-1.70392 v -1.35466 q 0,-1.07949 0.656165,-1.70391 0.656165,-0.62441 1.777994,-0.62441 1.121826,0 1.777996,0.62441 0.65616,0.62442 0.65616,1.70391 v 1.35466 q 0,1.06892 -0.65616,1.70392 -0.65617,0.62441 -1.777996,0.62441 z m 0,-1.15358 q 0.529165,0 0.814916,-0.28575 0.29633,-0.29633 0.29633,-0.84666 v -1.43933 q 0,-0.55033 -0.29633,-0.83608 -0.285751,-0.29633 -0.814916,-0.29633 -0.529165,0 -0.825497,0.29633 -0.285749,0.28575 -0.285749,0.83608 v 1.43933 q 0,0.55033 0.285749,0.84666 0.296332,0.28575 0.825497,0.28575 z"
           id="path7595" />
        <path
           d="m 109.77719,160.27214 v -7.72581 h 4.80481 v 1.22766 h -3.50307 v 2.06375 h 3.22791 v 1.22766 h -3.20674 v 3.20674 z"
           style="font-weight:bold;fill:#790099"
           id="path7597" />
        <path
           d="m 118.46606,160.37797 q -0.74083,0 -1.29116,-0.28575 -0.55033,-0.28574 -0.85725,-0.80433 -0.29633,-0.52916 -0.29633,-1.23824 v -1.37583 q 0,-0.70908 0.29633,-1.22766 0.30692,-0.52917 0.85725,-0.81492 0.55033,-0.28575 1.29116,-0.28575 0.73025,0 1.27,0.28575 0.55033,0.28575 0.84666,0.80433 0.30692,0.508 0.30692,1.19592 v 1.05833 h -3.59833 v 0.40216 q 0,0.59267 0.30692,0.89958 0.30692,0.29633 0.86783,0.29633 0.41275,0 0.6985,-0.13758 0.29633,-0.14817 0.34925,-0.42333 h 1.31233 q -0.13759,0.75141 -0.78317,1.20649 -0.64558,0.4445 -1.57691,0.4445 z m -1.17475,-3.74648 v 0.20108 l 2.32833,-0.0106 v -0.20108 q 0,-0.60325 -0.29633,-0.93133 -0.29634,-0.32808 -0.85725,-0.32808 -0.58208,0 -0.87841,0.33867 -0.29634,0.32808 -0.29634,0.93133 z"
           style="font-weight:bold;fill:#790099"
           id="path7599" />
        <path
           d="m 124.81602,160.37797 q -0.74083,0 -1.29116,-0.28575 -0.55033,-0.28574 -0.85725,-0.80433 -0.29633,-0.52916 -0.29633,-1.23824 v -1.37583 q 0,-0.70908 0.29633,-1.22766 0.30692,-0.52917 0.85725,-0.81492 0.55033,-0.28575 1.29116,-0.28575 0.73025,0 1.27,0.28575 0.55033,0.28575 0.84666,0.80433 0.30692,0.508 0.30692,1.19592 v 1.05833 h -3.59833 v 0.40216 q 0,0.59267 0.30692,0.89958 0.30692,0.29633 0.86783,0.29633 0.41275,0 0.6985,-0.13758 0.29633,-0.14817 0.34925,-0.42333 h 1.31233 q -0.13759,0.75141 -0.78317,1.20649 -0.64558,0.4445 -1.57691,0.4445 z m -1.17475,-3.74648 v 0.20108 l 2.32833,-0.0106 v -0.20108 q 0,-0.60325 -0.29633,-0.93133 -0.29633,-0.32808 -0.85725,-0.32808 -0.58208,0 -0.87841,0.33867 -0.29634,0.32808 -0.29634,0.93133 z"
           style="font-weight:bold;fill:#790099"
           id="path7601" />
        <path
           d="m 131.73749,160.27214 q -0.81492,0 -1.30175,-0.46566 -0.47625,-0.47625 -0.47625,-1.28058 v -2.87866 h -1.60866 v -1.19591 h 1.60866 v -1.64042 h 1.3335 v 1.64042 h 2.31774 v 1.19591 h -2.31774 v 2.84691 q 0,0.254 0.13758,0.42333 0.14817,0.15875 0.40217,0.15875 h 1.72507 v 1.19591 z"
           style="font-weight:bold;fill:#790099"
           id="path7603" />
      </g>
    </g>
    <path
       style="fill:none;stroke:#000000;stroke-width:0.52916667;stroke-linecap:butt;stroke-linejoin:miter;stroke-opacity:1;stroke-miterlimit:4;stroke-dasharray:none;marker-end:url(#Arrow1Mend)"
       d="m 219.60417,156.10416 h 21.16666"
       id="path93517" />
    <path
       style="fill:none;stroke:#000000;stroke-width:0.529167;stroke-linecap:butt;stroke-linejoin:miter;stroke-miterlimit:4;stroke-dasharray:none;stroke-opacity:1;marker-end:url(#Arrow1Mend)"
       d="m 238.12501,66.145833 h 21.16666"
       id="path93712" />
  </g>
</svg>
