<?xml version="1.0" encoding="UTF-8" standalone="no"?>
<!-- Created with Inkscape (http://www.inkscape.org/) -->

<svg
   width="42.048389mm"
   height="15.144262mm"
   viewBox="0 0 42.048389 15.144262"
   version="1.1"
   id="svg5"
   xmlns="http://www.w3.org/2000/svg"
   xmlns:svg="http://www.w3.org/2000/svg">
  <defs
     id="defs2">
    <rect
       x="43.965637"
       y="264.26312"
       width="248.43727"
       height="74.605194"
       id="rect14042" />
  </defs>
  <g
     id="layer1"
     transform="translate(-14.85632,-68.653561)">
    <path
       id="rect23388"
       style="opacity:1;fill:#f9f9f9;stroke:#000000;stroke-width:0.529167"
       d="m 20.563013,68.918144 h 30.635002 c 3.014929,0 5.44211,2.427181 5.44211,5.44211 v 3.730875 c 0,3.014929 -2.427181,5.44211 -5.44211,5.44211 H 20.563013 c -3.014929,0 -5.44211,-2.427181 -5.44211,-5.44211 v -3.730875 c 0,-3.014929 2.427181,-5.44211 5.44211,-5.44211 z" />
    <g
       aria-label="mp-units"
       id="text2300"
       style="font-size:7.48174px;line-height:1.25;font-family:'JetBrains Mono';-inkscape-font-specification:'JetBrains Mono';text-align:center;text-anchor:middle;stroke-width:0.529167">
      <path
         d="m 18.562556,78.749931 v -4.114957 h 0.583576 v 0.546167 h 0.01496 q 0.03741,-0.276824 0.21697,-0.448904 0.187043,-0.17208 0.47135,-0.17208 0.269342,0 0.456386,0.157116 0.187043,0.157117 0.269342,0.42646 h 0.0075 q 0.05237,-0.269343 0.231934,-0.42646 0.187044,-0.157116 0.47135,-0.157116 0.396532,0 0.628466,0.29927 0.239416,0.291787 0.239416,0.763137 v 3.127367 h -0.628467 v -3.134849 q 0,-0.246897 -0.119707,-0.38905 -0.119708,-0.149635 -0.329197,-0.149635 -0.202007,0 -0.321715,0.142153 -0.119708,0.142153 -0.119708,0.389051 v 3.14233 H 20.08135 v -3.134849 q 0,-0.246897 -0.119708,-0.38905 -0.119708,-0.149635 -0.321715,-0.149635 -0.209489,0 -0.329197,0.142153 -0.119708,0.142153 -0.119708,0.389051 v 3.14233 z"
         id="path1042" />
      <path
         d="m 23.291005,80.096645 v -5.461671 h 0.673356 v 0.785583 h 0.0075 q 0.05237,-0.404014 0.351642,-0.628466 0.299269,-0.231934 0.763137,-0.231934 0.620985,0 0.98759,0.411496 0.366605,0.404014 0.366605,1.114779 v 1.20456 q 0,0.710765 -0.366605,1.122261 -0.366605,0.411496 -0.98759,0.411496 -0.463868,0 -0.763137,-0.231934 -0.29927,-0.231934 -0.351642,-0.628466 h -0.02245 l 0.01496,0.935217 v 1.197079 z m 1.571165,-1.855472 q 0.426459,0 0.665875,-0.224452 0.239416,-0.224452 0.239416,-0.725729 v -1.197078 q 0,-0.508759 -0.239416,-0.725729 -0.239416,-0.224452 -0.665875,-0.224452 -0.411496,0 -0.658393,0.261861 -0.239416,0.26186 -0.239416,0.725728 v 1.122261 q 0,0.463868 0.239416,0.725729 0.246897,0.261861 0.658393,0.261861 z"
         id="path1044" />
      <path
         d="m 28.139161,76.580227 v -0.598539 h 2.394157 v 0.598539 z"
         id="path1046" />
      <path
         d="m 33.81779,78.824749 q -0.710765,0 -1.137224,-0.418978 -0.426459,-0.426459 -0.426459,-1.152188 v -2.618609 h 0.673356 v 2.618609 q 0,0.448905 0.239416,0.718247 0.239416,0.261861 0.650911,0.261861 0.418978,0 0.658394,-0.261861 0.246897,-0.269342 0.246897,-0.718247 v -2.618609 h 0.673357 v 2.618609 q 0,0.725729 -0.433941,1.152188 -0.433941,0.418978 -1.144707,0.418978 z"
         id="path1048" />
      <path
         d="m 36.758103,78.749931 v -4.114957 h 0.673357 v 0.785583 h 0.0075 q 0.05237,-0.411496 0.336679,-0.635948 0.284306,-0.224452 0.755655,-0.224452 0.620985,0 0.98759,0.381569 0.366605,0.381568 0.366605,1.039962 v 2.768243 h -0.673356 v -2.648536 q 0,-0.471349 -0.239416,-0.718247 -0.231934,-0.254379 -0.635948,-0.254379 -0.418977,0 -0.665875,0.261861 -0.239415,0.261861 -0.239415,0.740692 v 2.618609 z"
         id="path1050" />
      <path
         d="m 41.194764,78.749931 v -0.613502 h 1.458939 v -2.887952 h -1.309305 v -0.613503 h 1.982661 v 3.501455 h 1.384122 v 0.613502 z m 1.7208,-4.855649 q -0.246898,0 -0.389051,-0.12719 -0.142153,-0.127189 -0.142153,-0.34416 0,-0.224452 0.142153,-0.351641 0.142153,-0.134672 0.389051,-0.134672 0.246897,0 0.38905,0.134672 0.142153,0.127189 0.142153,0.351641 0,0.216971 -0.142153,0.34416 -0.142153,0.12719 -0.38905,0.12719 z"
         id="path1052" />
      <path
         d="m 47.703866,78.749931 q -0.508758,0 -0.81551,-0.291788 -0.306751,-0.299269 -0.306751,-0.793064 V 75.248477 H 45.39949 v -0.613503 h 1.182115 v -1.159669 h 0.673357 v 1.159669 h 1.683391 v 0.613503 h -1.683391 v 2.416602 q 0,0.209489 0.119708,0.34416 0.127189,0.12719 0.329196,0.12719 h 1.197078 v 0.613502 z"
         id="path1054" />
      <path
         d="m 51.616805,78.809785 q -0.68832,0 -1.069889,-0.306751 -0.374087,-0.314233 -0.374087,-0.882845 h 0.673357 q 0,0.284306 0.202007,0.448904 0.202007,0.157117 0.568612,0.157117 h 0.329196 q 0.374087,0 0.576094,-0.164599 0.209489,-0.164598 0.209489,-0.463868 0,-0.531203 -0.486313,-0.598539 l -1.137224,-0.164598 q -0.418978,-0.05985 -0.650912,-0.34416 -0.231934,-0.291788 -0.231934,-0.763138 0,-0.538685 0.366605,-0.845436 0.374087,-0.306752 1.024999,-0.306752 h 0.329196 q 0.59854,0 0.972627,0.29927 0.381568,0.291788 0.411495,0.770619 h -0.680838 q -0.01496,-0.21697 -0.209489,-0.359123 -0.187043,-0.142153 -0.493795,-0.142153 h -0.329196 q -0.34416,0 -0.538685,0.157116 -0.194526,0.157117 -0.194526,0.426459 0,0.433941 0.396533,0.493795 l 1.062407,0.149635 q 1.047443,0.149635 1.047443,1.227005 0,0.576094 -0.381568,0.897809 -0.374087,0.314233 -1.062408,0.314233 z"
         id="path1056" />
    </g>
    <g
       transform="scale(0.26458333)"
       id="text14040"
       style="font-size:40px;line-height:1.25;font-family:'JetBrains Mono';-inkscape-font-specification:'JetBrains Mono';text-align:center;white-space:pre;shape-inside:url(#rect14042);fill:none;stroke:#000000;stroke-width:2" />
  </g>
</svg>
