<?xml version="1.0" encoding="UTF-8" standalone="no"?>
<!-- Created with Inkscape (http://www.inkscape.org/) -->

<svg
   width="46.041813mm"
   height="15.006373mm"
   viewBox="0 0 46.041813 15.006373"
   version="1.1"
   id="svg5"
   xmlns="http://www.w3.org/2000/svg"
   xmlns:svg="http://www.w3.org/2000/svg">
  <defs
     id="defs2">
    <rect
       x="43.965637"
       y="264.26312"
       width="248.43727"
       height="74.605194"
       id="rect14042" />
  </defs>
  <g
     id="layer1"
     transform="translate(-21.5395,-71.825834)">
    <g
       id="g5545">
      <path
         id="rect23388"
         style="opacity:1;fill:#fefefe;stroke:#000000;stroke-width:0.374517"
         d="m 27.17511,72.013092 h 34.770595 c 3.018387,0 5.448351,2.429965 5.448351,5.448351 v 3.735154 c 0,3.018387 -2.429964,5.448351 -5.448351,5.448351 H 27.17511 c -3.018387,0 -5.448351,-2.429964 -5.448351,-5.448351 v -3.735154 c 0,-3.018386 2.429964,-5.448351 5.448351,-5.448351 z" />
      <g
         aria-label="nholthaus"
         id="text2300"
         style="font-size:7.49032px;line-height:1.25;font-family:'JetBrains Mono';-inkscape-font-specification:'JetBrains Mono';text-align:center;text-anchor:middle;stroke-width:0.187258">
        <path
           d="m 25.215186,81.856155 v -4.119676 h 0.674129 v 0.786484 h 0.0075 q 0.05243,-0.411968 0.337064,-0.636677 0.284632,-0.22471 0.756523,-0.22471 0.621696,0 0.988722,0.382006 0.367026,0.382007 0.367026,1.041155 v 2.771418 h -0.674129 v -2.651573 q 0,-0.47189 -0.239691,-0.719071 -0.232199,-0.254671 -0.636677,-0.254671 -0.419458,0 -0.666638,0.262162 -0.23969,0.262161 -0.23969,0.741541 v 2.621612 z"
           id="path1457" />
        <path
           d="m 29.709366,81.856155 v -5.467933 h 0.674129 v 2.134741 h 0.0075 q 0.05243,-0.411968 0.337064,-0.636677 0.284632,-0.22471 0.756522,-0.22471 0.621697,0 0.988723,0.382006 0.367025,0.382007 0.367025,1.041155 v 2.771418 h -0.674129 v -2.659063 q 0,-0.4644 -0.23969,-0.711581 -0.2322,-0.254671 -0.636677,-0.254671 -0.419458,0 -0.666639,0.262162 -0.23969,0.262161 -0.23969,0.741541 v 2.621612 z"
           id="path1459" />
        <path
           d="m 35.761534,81.916078 q -0.741542,0 -1.183471,-0.434439 -0.434438,-0.434438 -0.434438,-1.213431 v -0.943781 q 0,-0.786483 0.434438,-1.213432 0.434439,-0.434438 1.183471,-0.434438 0.749032,0 1.18347,0.434438 0.434439,0.426949 0.434439,1.213432 v 0.943781 q 0,0.778993 -0.441929,1.213431 -0.434439,0.434439 -1.17598,0.434439 z m 0,-0.599226 q 0.441929,0 0.689109,-0.24718 0.254671,-0.247181 0.254671,-0.726561 v -1.093587 q 0,-0.479381 -0.254671,-0.726561 -0.24718,-0.247181 -0.689109,-0.247181 -0.434439,0 -0.68911,0.247181 -0.254671,0.24718 -0.254671,0.726561 v 1.093587 q 0,0.47938 0.254671,0.726561 0.254671,0.24718 0.68911,0.24718 z"
           id="path1461" />
        <path
           d="m 40.85494,81.856155 q -0.546793,0 -0.876367,-0.314593 -0.322084,-0.322084 -0.322084,-0.846406 v -3.692728 h -1.423161 v -0.614206 h 2.09729 v 4.306934 q 0,0.254671 0.142316,0.404477 0.142316,0.142316 0.382006,0.142316 h 1.273354 v 0.614206 z"
           id="path1463" />
        <path
           d="m 45.161863,81.856155 q -0.509342,0 -0.816445,-0.292122 -0.307103,-0.299613 -0.307103,-0.793974 v -2.419373 h -1.183471 v -0.614207 h 1.183471 V 76.57548 h 0.674128 v 1.160999 h 1.685322 v 0.614207 h -1.685322 v 2.419373 q 0,0.209729 0.119846,0.344555 0.127335,0.127335 0.329574,0.127335 h 1.198451 v 0.614206 z"
           id="path1465" />
        <path
           d="m 47.686089,81.856155 v -5.467933 h 0.674129 v 2.134741 h 0.0075 q 0.05243,-0.411968 0.337065,-0.636677 0.284632,-0.22471 0.756522,-0.22471 0.621697,0 0.988722,0.382006 0.367026,0.382007 0.367026,1.041155 v 2.771418 h -0.674129 v -2.659063 q 0,-0.4644 -0.23969,-0.711581 -0.2322,-0.254671 -0.636677,-0.254671 -0.419458,0 -0.666639,0.262162 -0.23969,0.262161 -0.23969,0.741541 v 2.621612 z"
           id="path1467" />
        <path
           d="m 53.378721,81.931059 q -0.636677,0 -1.011193,-0.352045 -0.374516,-0.359536 -0.374516,-0.93629 0,-0.382007 0.172277,-0.666639 0.172278,-0.284632 0.479381,-0.441929 0.307103,-0.164787 0.70409,-0.164787 h 1.273354 v -0.322084 q 0,-0.801464 -0.876367,-0.801464 -0.389497,0 -0.629187,0.142316 -0.23969,0.142316 -0.254671,0.396987 H 52.18776 q 0.03745,-0.486871 0.449419,-0.801464 0.419458,-0.322084 1.108568,-0.322084 0.749032,0 1.146019,0.359535 0.404477,0.359536 0.404477,1.003703 v 2.831341 h -0.666639 v -0.749032 h -0.01498 q -0.05992,0.382007 -0.382006,0.606716 -0.322084,0.21722 -0.853897,0.21722 z m 0.164787,-0.569265 q 0.494361,0 0.786484,-0.23969 0.292122,-0.23969 0.292122,-0.651658 v -0.576754 h -1.198451 q -0.329574,0 -0.539303,0.202238 -0.202239,0.194748 -0.202239,0.524323 0,0.344554 0.22471,0.546793 0.2322,0.194748 0.636677,0.194748 z"
           id="path1469" />
        <path
           d="m 58.224947,81.931059 q -0.711581,0 -1.138529,-0.419458 -0.426948,-0.426949 -0.426948,-1.15351 v -2.621612 h 0.674129 v 2.621612 q 0,0.44942 0.23969,0.719071 0.23969,0.262161 0.651658,0.262161 0.419458,0 0.659148,-0.262161 0.24718,-0.269651 0.24718,-0.719071 v -2.621612 h 0.674129 v 2.621612 q 0,0.726561 -0.434438,1.15351 -0.434439,0.419458 -1.146019,0.419458 z"
           id="path1471" />
        <path
           d="m 62.561831,81.916078 q -0.68911,0 -1.071116,-0.307103 -0.374516,-0.314594 -0.374516,-0.883858 h 0.674129 q 0,0.284632 0.202238,0.449419 0.202239,0.157297 0.569265,0.157297 h 0.329574 q 0.374516,0 0.576754,-0.164787 0.209729,-0.164787 0.209729,-0.4644 0,-0.531813 -0.48687,-0.599226 l -1.138529,-0.164787 q -0.419458,-0.05992 -0.651658,-0.344554 -0.2322,-0.292123 -0.2322,-0.764013 0,-0.539303 0.367026,-0.846406 0.374516,-0.307103 1.026174,-0.307103 h 0.329574 q 0.599225,0 0.973741,0.299613 0.382007,0.292122 0.411968,0.771503 h -0.681619 q -0.01498,-0.21722 -0.209729,-0.359536 -0.187258,-0.142316 -0.494361,-0.142316 h -0.329574 q -0.344555,0 -0.539303,0.157297 -0.194749,0.157297 -0.194749,0.426948 0,0.434439 0.396987,0.494361 l 1.063626,0.149807 q 1.048645,0.149806 1.048645,1.228412 0,0.576755 -0.382007,0.898839 -0.374516,0.314593 -1.063625,0.314593 z"
           id="path1473" />
      </g>
    </g>
    <g
       transform="scale(0.26458333)"
       id="text14040"
       style="font-size:40px;line-height:1.25;font-family:'JetBrains Mono';-inkscape-font-specification:'JetBrains Mono';text-align:center;white-space:pre;shape-inside:url(#rect14042);fill:none;stroke:#000000;stroke-width:2" />
  </g>
</svg>
